<svg width="44" height="35" viewBox="0 0 44 35" fill="none" xmlns="http://www.w3.org/2000/svg">
<path d="M26.4889 28.3079C25.3134 30.0641 24.067 31.7779 22.1692 31.8062C20.2714 31.8486 19.6624 30.6872 17.5096 30.6872C15.3427 30.6872 14.677 31.7779 12.8783 31.8486C11.0229 31.9194 9.62081 29.9791 8.43112 28.2654C6.00924 24.7672 4.15389 18.3229 6.64658 13.9891C7.87876 11.8363 10.0882 10.4767 12.4817 10.4342C14.2946 10.4059 16.0225 11.6664 17.1413 11.6664C18.246 11.6664 20.3422 10.1509 22.5374 10.3775C23.4581 10.42 26.0357 10.7458 27.6928 13.1818C27.5653 13.2668 24.6194 14.9947 24.6478 18.5779C24.6903 22.8552 28.4009 24.2856 28.4434 24.2998C28.4009 24.3989 27.8486 26.3393 26.4889 28.3079ZM18.4019 5.64709C19.4357 4.47157 21.1495 3.5793 22.5658 3.52264C22.7499 5.17972 22.0843 6.85095 21.0928 8.04064C20.1156 9.2445 18.501 10.1793 16.9148 10.0518C16.7023 8.42305 17.4954 6.72349 18.4019 5.64709Z" fill="white"/>
</svg>
