<svg width="45" height="44" viewBox="0 0 45 44" fill="none" xmlns="http://www.w3.org/2000/svg">
<mask id="mask0_6417_1614" style="mask-type:luminance" maskUnits="userSpaceOnUse" x="0" y="0" width="45" height="45">
<path d="M44.3198 0.0150146H0.329834V44.005H44.3198V0.0150146Z" fill="white"/>
</mask>
<g mask="url(#mask0_6417_1614)">
<path d="M22.3255 3.68103C32.449 3.68103 40.6552 11.8872 40.6552 22.0107C40.6552 32.1342 32.449 40.3403 22.3255 40.3403C12.2021 40.3403 3.99585 32.1342 3.99585 22.0107C3.99585 11.8872 12.2021 3.68103 22.3255 3.68103ZM22.3255 7.34696C14.2275 7.34696 7.66178 13.9126 7.66178 22.0107C7.66178 30.1087 14.2275 36.6744 22.3255 36.6744C30.4235 36.6744 36.9892 30.1087 36.9892 22.0107C36.9892 13.9126 30.4235 7.34696 22.3255 7.34696ZM30.101 11.6416L32.6946 14.2334L25.8686 21.063C25.9493 21.3654 25.9914 21.6826 25.9914 22.0107C25.9914 24.0361 24.3509 25.6766 22.3255 25.6766C20.3 25.6766 18.6596 24.0361 18.6596 22.0107C18.6596 19.9852 20.3 18.3447 22.3255 18.3447C22.6536 18.3447 22.9707 18.3869 23.2731 18.4675L30.1028 11.6416H30.101Z" fill="#1070B9"/>
<path d="M22.3251 9.17969C24.1911 9.17969 25.9636 9.57744 27.5638 10.2942L24.6988 13.1572C23.9418 12.9556 23.1463 12.8456 22.3251 12.8456C17.2643 12.8456 13.1603 16.9496 13.1603 22.0104C13.1603 24.5399 14.1867 26.8311 15.8438 28.4918L13.2519 31.0836L12.966 30.7886C10.8141 28.4936 9.49438 25.4051 9.49438 22.0104C9.49438 14.9242 15.2389 9.17969 22.3251 9.17969ZM34.0415 16.7737C34.7563 18.372 35.1559 20.1463 35.1559 22.0104C35.1559 25.5536 33.7188 28.7613 31.3983 31.0836L28.8065 28.4918C30.4635 26.8311 31.49 24.5399 31.49 22.0104C31.49 21.1893 31.3818 20.3937 31.1783 19.6368L34.0415 16.7737Z" fill="#1070B9"/>
</g>
</svg>
