<svg width="45" height="44" viewBox="0 0 45 44" fill="none" xmlns="http://www.w3.org/2000/svg">
<mask id="mask0_6417_1539" style="mask-type:luminance" maskUnits="userSpaceOnUse" x="0" y="0" width="45" height="44">
<path d="M44.6299 0.00500488H0.639893V43.995H44.6299V0.00500488Z" fill="white"/>
</mask>
<g mask="url(#mask0_6417_1539)">
<path d="M25.9681 36.9977H9.30476C8.86282 36.9977 8.43899 36.8221 8.12649 36.5096C7.81398 36.1971 7.63843 35.7733 7.63843 35.3313V18.668H25.9681V36.9977ZM37.6324 15.3353H7.63843V8.67C7.63843 8.22806 7.81398 7.80422 8.12649 7.49172C8.43899 7.17922 8.86282 7.00366 9.30476 7.00366H35.9661C36.4081 7.00366 36.8319 7.17922 37.1443 7.49172C37.4569 7.80422 37.6324 8.22806 37.6324 8.67V15.3353Z" fill="#1070B9"/>
<path d="M29.3 36.9971V18.6675H37.6317V35.3307C37.6317 35.7728 37.4561 36.1966 37.1436 36.509C36.8311 36.8215 36.4073 36.9971 35.9653 36.9971H29.3Z" fill="#1070B9"/>
</g>
</svg>
