<svg width="45" height="44" viewBox="0 0 45 44" fill="none" xmlns="http://www.w3.org/2000/svg">
<mask id="mask0_6417_1654" style="mask-type:luminance" maskUnits="userSpaceOnUse" x="0" y="0" width="45" height="45">
<path d="M44.6299 0.0150146H0.639893V44.005H44.6299V0.0150146Z" fill="white"/>
</mask>
<g mask="url(#mask0_6417_1654)">
<path d="M10.6533 8.14053C13.9794 5.25848 18.2344 3.67478 22.6354 3.68093C32.7589 3.68093 40.9651 11.8871 40.9651 22.0106C40.9651 25.9258 39.737 29.5551 37.6474 32.5318L31.8003 22.0106H37.2992C37.2994 19.1358 36.4547 16.3243 34.8699 13.9258C33.2851 11.5273 31.0302 9.64752 28.3858 8.52018C25.7412 7.39284 22.8237 7.0677 19.9959 7.58518C17.168 8.10265 14.5547 9.43991 12.4808 11.4307L10.6533 8.14053Z" fill="#1070B9"/>
<path d="M34.6177 35.8805C31.2917 38.7625 27.0365 40.3463 22.6356 40.3401C12.5121 40.3401 4.30591 32.1339 4.30591 22.0104C4.30591 18.0952 5.53399 14.4659 7.62357 11.4891L13.4707 22.0104H7.97184C7.97161 24.8852 8.81638 27.6966 10.4011 30.0951C11.9858 32.4936 14.2407 34.3735 16.8853 35.5008C19.5297 36.6281 22.4473 36.9533 25.2751 36.4358C28.1029 35.9183 30.7163 34.5811 32.7902 32.5903L34.6177 35.8805Z" fill="#1070B9"/>
</g>
</svg>
