<svg width="18" height="19" viewBox="0 0 18 19" fill="none" xmlns="http://www.w3.org/2000/svg">
<path d="M3.36312 13.2235H2.98833C2.78953 13.2235 2.59887 13.1445 2.45829 13.0039C2.31772 12.8634 2.23875 12.6727 2.23875 12.4739C2.23875 11.8775 2.47567 11.3055 2.89739 10.8838C3.31911 10.4621 3.89109 10.2251 4.4875 10.2251H5.23708M5.23708 7.93892C4.96184 7.88262 4.70279 7.76517 4.47907 7.59524C4.25536 7.42532 4.07272 7.20726 3.94465 6.95722C3.81659 6.70717 3.74638 6.43154 3.73922 6.15069C3.73207 5.86985 3.78815 5.591 3.90331 5.33475C4.01848 5.07851 4.18978 4.85144 4.40455 4.67034C4.61932 4.48924 4.87206 4.35875 5.14407 4.28851C5.41608 4.21828 5.7004 4.2101 5.976 4.26458C6.2516 4.31907 6.51142 4.43482 6.73625 4.60327M14.6069 13.2235H14.9817C15.1805 13.2235 15.3711 13.1445 15.5117 13.0039C15.6523 12.8634 15.7312 12.6727 15.7312 12.4739C15.7312 11.8775 15.4943 11.3055 15.0726 10.8838C14.6509 10.4621 14.0789 10.2251 13.4825 10.2251H12.7329M12.7329 7.93892C13.0081 7.88262 13.2672 7.76517 13.4909 7.59524C13.7146 7.42532 13.8973 7.20726 14.0253 6.95722C14.1534 6.70717 14.2236 6.43154 14.2308 6.15069C14.2379 5.86985 14.1818 5.591 14.0667 5.33475C13.9515 5.07851 13.7802 4.85144 13.5654 4.67034C13.3507 4.48924 13.0979 4.35875 12.8259 4.28851C12.5539 4.21828 12.2696 4.2101 11.994 4.26458C11.7184 4.31907 11.4586 4.43482 11.2337 4.60327M11.6085 14.7226H6.36145C6.16265 14.7226 5.97199 14.6437 5.83142 14.5031C5.69085 14.3625 5.61187 14.1719 5.61187 13.9731C5.61187 13.3767 5.84879 12.8047 6.27051 12.383C6.69224 11.9612 7.26422 11.7243 7.86062 11.7243H10.1094C10.7058 11.7243 11.2778 11.9612 11.6995 12.383C12.1212 12.8047 12.3581 13.3767 12.3581 13.9731C12.3581 14.1719 12.2791 14.3625 12.1386 14.5031C11.998 14.6437 11.8073 14.7226 11.6085 14.7226ZM10.859 7.6016C10.859 8.09861 10.6615 8.57526 10.3101 8.92669C9.95865 9.27813 9.482 9.47556 8.985 9.47556C8.48799 9.47556 8.01134 9.27813 7.65991 8.92669C7.30847 8.57526 7.11104 8.09861 7.11104 7.6016C7.11104 7.1046 7.30847 6.62795 7.65991 6.27651C8.01134 5.92508 8.48799 5.72764 8.985 5.72764C9.482 5.72764 9.95865 5.92508 10.3101 6.27651C10.6615 6.62795 10.859 7.1046 10.859 7.6016Z" stroke="#4B5563" stroke-width="1.49917" stroke-linecap="round"/>
</svg>
