<svg width="18" height="19" viewBox="0 0 18 19" fill="none" xmlns="http://www.w3.org/2000/svg">
<path d="M3.36363 13.2529H2.98884C2.79004 13.2529 2.59938 13.1739 2.45881 13.0333C2.31823 12.8928 2.23926 12.7021 2.23926 12.5033C2.23926 11.9069 2.47618 11.3349 2.8979 10.9132C3.31962 10.4915 3.8916 10.2546 4.48801 10.2546H5.23759M5.23759 7.96833C4.96236 7.91204 4.7033 7.79459 4.47959 7.62466C4.25587 7.45473 4.07323 7.23668 3.94516 6.98664C3.8171 6.73659 3.74689 6.46095 3.73973 6.18011C3.73258 5.89927 3.78866 5.62042 3.90382 5.36417C4.01899 5.10793 4.19029 4.88086 4.40506 4.69976C4.61983 4.51866 4.87257 4.38817 5.14458 4.31793C5.41659 4.2477 5.70091 4.23952 5.97651 4.294C6.25211 4.34848 6.51193 4.46423 6.73676 4.63269M14.6074 13.2529H14.9822C15.181 13.2529 15.3716 13.1739 15.5122 13.0333C15.6528 12.8928 15.7318 12.7021 15.7318 12.5033C15.7318 11.9069 15.4948 11.3349 15.0731 10.9132C14.6514 10.4915 14.0794 10.2546 13.483 10.2546H12.7334M12.7334 7.96833C13.0087 7.91204 13.2677 7.79459 13.4914 7.62466C13.7151 7.45473 13.8978 7.23668 14.0259 6.98664C14.1539 6.73659 14.2241 6.46095 14.2313 6.18011C14.2384 5.89927 14.1824 5.62042 14.0672 5.36417C13.952 5.10793 13.7807 4.88086 13.566 4.69976C13.3512 4.51866 13.0984 4.38817 12.8264 4.31793C12.5544 4.2477 12.2701 4.23952 11.9945 4.294C11.7189 4.34848 11.4591 4.46423 11.2343 4.63269M11.609 14.7521H6.36197C6.16316 14.7521 5.9725 14.6731 5.83193 14.5325C5.69136 14.3919 5.61238 14.2013 5.61238 14.0025C5.61238 13.4061 5.8493 12.8341 6.27103 12.4124C6.69275 11.9907 7.26473 11.7537 7.86113 11.7537H10.1099C10.7063 11.7537 11.2783 11.9907 11.7 12.4124C12.1217 12.8341 12.3586 13.4061 12.3586 14.0025C12.3586 14.2013 12.2797 14.3919 12.1391 14.5325C11.9985 14.6731 11.8079 14.7521 11.609 14.7521ZM10.8595 7.63102C10.8595 8.12803 10.662 8.60468 10.3106 8.95611C9.95916 9.30755 9.48251 9.50498 8.98551 9.50498C8.4885 9.50498 8.01185 9.30755 7.66042 8.95611C7.30898 8.60468 7.11155 8.12803 7.11155 7.63102C7.11155 7.13402 7.30898 6.65737 7.66042 6.30593C8.01185 5.9545 8.4885 5.75706 8.98551 5.75706C9.48251 5.75706 9.95916 5.9545 10.3106 6.30593C10.662 6.65737 10.8595 7.13402 10.8595 7.63102Z" stroke="#1070B9" stroke-linecap="round"/>
</svg>
