<svg width="19" height="19" viewBox="0 0 19 19" fill="none" xmlns="http://www.w3.org/2000/svg">
<path d="M11.0996 6.59449V4.07139C11.0996 3.89299 11.158 3.74632 11.275 3.63139C11.3919 3.51645 11.5368 3.45898 11.7097 3.45898H15.3677C15.5411 3.45898 15.685 3.51645 15.7994 3.63139C15.9139 3.74632 15.9713 3.89299 15.9718 4.07139V6.59449C15.9718 6.77339 15.9134 6.92006 15.7964 7.0345C15.6795 7.14943 15.5346 7.2069 15.3617 7.2069H11.7037C11.5308 7.2069 11.3869 7.14943 11.272 7.0345C11.157 6.91956 11.0996 6.77289 11.0996 6.59449ZM3.97852 8.85598V4.05865C3.97852 3.88875 4.03698 3.74632 4.15392 3.63139C4.27085 3.51645 4.41577 3.45898 4.58868 3.45898H8.24664C8.42005 3.45898 8.56397 3.51645 8.6784 3.63139C8.79284 3.74632 8.85031 3.88875 8.85081 4.05865V8.85598C8.85081 9.02589 8.79234 9.16831 8.6754 9.28325C8.55847 9.39818 8.41355 9.45565 8.24065 9.45565H4.58268C4.40978 9.45565 4.26586 9.39818 4.15092 9.28325C4.03598 9.16831 3.97852 9.02589 3.97852 8.85598ZM11.0996 14.8527V10.0553C11.0996 9.88541 11.158 9.74299 11.275 9.62805C11.3919 9.51312 11.5368 9.45565 11.7097 9.45565H15.3677C15.5411 9.45565 15.685 9.51312 15.7994 9.62805C15.9139 9.74299 15.9713 9.88541 15.9718 10.0553V14.8527C15.9718 15.0226 15.9134 15.165 15.7964 15.2799C15.6795 15.3948 15.5346 15.4523 15.3617 15.4523H11.7037C11.5308 15.4523 11.3869 15.3948 11.272 15.2799C11.157 15.165 11.0996 15.0226 11.0996 14.8527ZM3.97852 14.8399V12.3168C3.97852 12.1384 4.03698 11.9917 4.15392 11.8768C4.27085 11.7619 4.41577 11.7044 4.58868 11.7044H8.24664C8.42005 11.7044 8.56397 11.7619 8.6784 11.8768C8.79284 11.9917 8.85031 12.1384 8.85081 12.3168V14.8399C8.85081 15.0188 8.79234 15.1655 8.6754 15.2799C8.55847 15.3948 8.41355 15.4523 8.24065 15.4523H4.58268C4.40978 15.4523 4.26586 15.3948 4.15092 15.2799C4.03598 15.165 3.97852 15.0183 3.97852 14.8399ZM4.7281 8.70607H8.10122V4.20857H4.7281V8.70607ZM11.8491 14.7027H15.2223V10.2052H11.8491V14.7027ZM11.8491 6.45732H15.2223V4.20857H11.8491V6.45732ZM4.7281 14.7027H8.10122V12.454H4.7281V14.7027Z" fill="#1070B9"/>
</svg>
