<svg width="18" height="19" viewBox="0 0 18 19" fill="none" xmlns="http://www.w3.org/2000/svg">
<path fill-rule="evenodd" clip-rule="evenodd" d="M4.71462 16.4152C4.63547 16.2541 4.53733 16.1031 4.42229 15.9654C4.19307 15.7341 3.92388 15.5462 3.62773 15.4107C3.80852 15.3493 3.97389 15.2495 4.11253 15.1182C4.25118 14.9869 4.35981 14.8272 4.43099 14.65C4.50218 14.4728 4.53424 14.2824 4.52497 14.0917C4.51571 13.9009 4.46534 13.7145 4.37731 13.545C4.21565 13.1677 3.93855 12.8513 3.58583 12.6414C3.2331 12.4314 2.8229 12.3386 2.41415 12.3764C2.13715 12.4321 1.87618 12.5493 1.65045 12.7192C1.42472 12.8892 1.24 13.1076 1.10988 13.3584C0.969124 13.6207 0.909642 13.9189 0.939011 14.2151C0.968379 14.5114 1.08527 14.7921 1.27479 15.0217C1.42995 15.1866 1.62334 15.3133 1.83697 15.389C1.50889 15.5299 1.21301 15.7362 0.967456 15.9954C0.852677 16.1332 0.754786 16.2842 0.675868 16.4452C0.597059 16.6123 0.539154 16.7885 0.503464 16.9699C0.418417 17.3559 0.38066 17.7508 0.391027 18.146C0.388145 18.2224 0.413182 18.2972 0.461462 18.3566C0.509741 18.4159 0.577962 18.4556 0.653381 18.4683C0.692803 18.4735 0.732874 18.4709 0.77126 18.4605C0.809647 18.4501 0.845582 18.4322 0.876974 18.4077C0.908366 18.3833 0.934586 18.3529 0.95411 18.3183C0.973633 18.2836 0.986069 18.2454 0.990694 18.2059C1.14761 17.7757 1.3425 17.3634 1.57537 16.9691L1.77026 16.5868C1.83772 16.4519 1.8827 16.317 1.95766 16.1895C2.0541 16.0286 2.16654 15.879 2.29497 15.7405C2.33072 15.7156 2.35925 15.6817 2.37768 15.6422C2.39611 15.6027 2.40378 15.5591 2.39991 15.5157C2.57181 15.5532 2.74647 15.5731 2.92387 15.5756C2.92387 15.5756 2.96135 15.5756 2.98384 15.5382C2.9998 15.6071 3.03962 15.6682 3.09627 15.7106C3.2237 15.849 3.33614 15.9989 3.43359 16.1603C3.50854 16.2877 3.55352 16.4227 3.62098 16.5576L3.81587 16.9399C4.05024 17.3382 4.24488 17.7552 4.3998 18.1909C4.40426 18.2309 4.41693 18.2696 4.43703 18.3045C4.45712 18.3393 4.4842 18.3697 4.51657 18.3936C4.54894 18.4176 4.58591 18.4345 4.62514 18.4435C4.66438 18.4525 4.70505 18.4533 4.74461 18.4458C4.82501 18.4346 4.89773 18.3921 4.94688 18.3275C4.99604 18.2629 5.01763 18.1815 5.00696 18.101C5.01493 17.7053 4.97465 17.3101 4.88703 16.9241C4.85017 16.7479 4.79229 16.5776 4.71462 16.4152ZM2.29422 14.8778C2.1312 14.811 1.99256 14.6959 1.89694 14.548C1.83877 14.435 1.81487 14.3075 1.82819 14.1811C1.8415 14.0547 1.89145 13.935 1.9719 13.8366C2.03919 13.7222 2.1302 13.6235 2.23881 13.5473C2.34742 13.471 2.47111 13.4188 2.60155 13.3944C2.80759 13.3595 3.01937 13.3908 3.20654 13.4837C3.39371 13.5766 3.54666 13.7264 3.64347 13.9116C3.97329 14.5112 3.41859 15.3425 2.29422 14.8778ZM10.8889 16.4152C10.8098 16.2541 10.7116 16.1031 10.5966 15.9654C10.3674 15.7341 10.0982 15.5462 9.80205 15.4107C9.98596 15.3531 10.1551 15.2562 10.2978 15.1266C10.4404 14.997 10.5531 14.8379 10.628 14.6603C10.7029 14.4827 10.7382 14.291 10.7315 14.0984C10.7248 13.9058 10.6762 13.7169 10.5891 13.545C10.4274 13.1676 10.1502 12.8511 9.79731 12.6411C9.44444 12.4312 9.03407 12.3385 8.6252 12.3764C8.3416 12.427 8.07332 12.5418 7.84089 12.712C7.60846 12.8822 7.41804 13.1033 7.2842 13.3584C7.14749 13.6235 7.09301 13.9235 7.12773 14.2198C7.16245 14.5161 7.28479 14.7953 7.47909 15.0217C7.63453 15.1872 7.82728 15.3131 8.04127 15.389C7.71319 15.5299 7.41731 15.7362 7.17176 15.9954C7.05672 16.1331 6.95857 16.2841 6.87942 16.4452C6.80287 16.6028 6.74501 16.7688 6.70702 16.9399C6.62197 17.3259 6.58421 17.7208 6.59458 18.116C6.58378 18.1973 6.60516 18.2796 6.65416 18.3454C6.70316 18.4112 6.77592 18.4553 6.85693 18.4683C6.89636 18.4735 6.93643 18.4709 6.97481 18.4605C7.0132 18.4501 7.04913 18.4322 7.08053 18.4077C7.11192 18.3833 7.13814 18.3529 7.15766 18.3183C7.17719 18.2836 7.18962 18.2454 7.19425 18.2059C7.34141 17.7778 7.52707 17.3638 7.74894 16.9691L7.94383 16.5868C8.01129 16.4519 8.05627 16.317 8.13122 16.1895C8.22817 16.0286 8.34061 15.879 8.46854 15.7405C8.50429 15.7156 8.53282 15.6817 8.55125 15.6422C8.56967 15.6027 8.57734 15.5591 8.57348 15.5157C8.74638 15.5532 8.92129 15.5731 9.09819 15.5756C9.09819 15.5756 9.13567 15.5756 9.15815 15.5382C9.17412 15.6071 9.21394 15.6682 9.27059 15.7106C9.39802 15.849 9.51021 15.9989 9.60715 16.1603C9.68211 16.2877 9.72709 16.4227 9.79455 16.5576L9.98944 16.9399C10.2238 17.3382 10.4187 17.7552 10.5741 18.1909C10.5786 18.2309 10.5913 18.2696 10.6113 18.3045C10.6314 18.3393 10.6585 18.3697 10.6909 18.3936C10.7233 18.4176 10.7602 18.4345 10.7995 18.4435C10.8387 18.4525 10.8794 18.4533 10.9189 18.4458C10.9992 18.4344 11.0717 18.3918 11.1207 18.3273C11.1697 18.2627 11.1912 18.1813 11.1805 18.101C11.1885 17.7053 11.1482 17.3101 11.0606 16.9241C11.0237 16.7479 10.9659 16.5768 10.8882 16.4144M8.46704 14.8778C8.30402 14.811 8.16537 14.6959 8.06976 14.548C8.01159 14.435 7.98769 14.3075 8.00101 14.1811C8.01432 14.0547 8.06427 13.935 8.14472 13.8366C8.21201 13.7222 8.30302 13.6235 8.41163 13.5473C8.52024 13.471 8.64392 13.4188 8.77437 13.3944C8.9804 13.3595 9.19219 13.3908 9.37936 13.4837C9.56653 13.5766 9.71948 13.7264 9.81629 13.9116C10.1461 14.5187 9.59141 15.335 8.46704 14.8778ZM17.0625 16.4152C16.9834 16.2541 16.8852 16.1031 16.7702 15.9654C16.5544 15.7384 16.3007 15.5507 16.0206 15.4107C16.2014 15.3493 16.3668 15.2495 16.5054 15.1182C16.644 14.9869 16.7527 14.8272 16.8239 14.65C16.895 14.4728 16.9271 14.2824 16.9178 14.0917C16.9086 13.9009 16.8582 13.7145 16.7702 13.545C16.6085 13.1677 16.3314 12.8513 15.9787 12.6414C15.626 12.4314 15.2158 12.3386 14.807 12.3764C14.5246 12.428 14.2577 12.5432 14.0265 12.7133C13.7953 12.8835 13.6059 13.1041 13.4728 13.3584C13.332 13.6207 13.2725 13.9189 13.3019 14.2151C13.3313 14.5114 13.4481 14.7921 13.6377 15.0217C13.7949 15.1851 13.9871 15.3106 14.1999 15.389C13.8701 15.5308 13.5719 15.7369 13.3228 15.9954C13.2081 16.1332 13.1102 16.2842 13.0313 16.4452C12.9547 16.6028 12.8968 16.7688 12.8588 16.9399C12.7662 17.325 12.7209 17.7199 12.7239 18.116C12.7131 18.1973 12.7345 18.2796 12.7835 18.3454C12.8325 18.4112 12.9053 18.4553 12.9863 18.4683C13.0257 18.4735 13.0658 18.4709 13.1042 18.4605C13.1425 18.4501 13.1785 18.4322 13.2099 18.4077C13.2413 18.3833 13.2675 18.3529 13.287 18.3183C13.3065 18.2836 13.319 18.2454 13.3236 18.2059C13.4852 17.7762 13.6859 17.3622 13.9233 16.9691L14.1181 16.5868C14.1856 16.4519 14.2306 16.317 14.3055 16.1895C14.402 16.0286 14.5144 15.879 14.6429 15.7405C14.6785 15.7155 14.7069 15.6816 14.7251 15.6421C14.7434 15.6026 14.751 15.559 14.747 15.5157C14.922 15.5537 15.0994 15.5736 15.2793 15.5756L15.3317 15.5382C15.345 15.6082 15.3854 15.6702 15.4442 15.7106C15.5716 15.849 15.684 15.9989 15.7815 16.1603C15.8564 16.2877 15.9014 16.4227 15.9689 16.5576L16.1638 16.9399C16.3981 17.3382 16.5928 17.7552 16.7477 18.1909C16.7521 18.2309 16.7648 18.2696 16.7849 18.3045C16.805 18.3393 16.8321 18.3697 16.8645 18.3936C16.8968 18.4176 16.9338 18.4345 16.973 18.4435C17.0123 18.4525 17.0529 18.4533 17.0925 18.4458C17.1729 18.4346 17.2456 18.3921 17.2948 18.3275C17.3439 18.2629 17.3655 18.1815 17.3548 18.101C17.3591 17.6997 17.3138 17.2994 17.2199 16.9091C17.1867 16.7387 17.1339 16.5735 17.0625 16.4152ZM14.6496 14.8778C14.4866 14.811 14.3479 14.6959 14.2523 14.548C14.1941 14.435 14.1703 14.3075 14.1836 14.1811C14.1969 14.0547 14.2468 13.935 14.3273 13.8366C14.3946 13.7222 14.4856 13.6235 14.5942 13.5473C14.7028 13.471 14.8265 13.4188 14.9569 13.3944C15.163 13.3595 15.3748 13.3908 15.5619 13.4837C15.7491 13.5766 15.902 13.7264 15.9989 13.9116C16.0542 13.9983 16.0888 14.0966 16.0998 14.1989C16.1108 14.3012 16.0981 14.4046 16.0625 14.5012C16.027 14.5977 15.9696 14.6847 15.8948 14.7554C15.82 14.826 15.7299 14.8784 15.6316 14.9085C15.4217 14.991 15.6316 15.0209 15.2793 15.0209C15.0633 15.0062 14.8509 14.9574 14.6496 14.8778ZM12.1617 5.52822C12.0744 5.33152 11.9609 5.14747 11.8244 4.98103C11.5108 4.63097 11.1316 4.34575 10.7083 4.14149C10.9371 3.942 11.111 3.68719 11.2134 3.40138C11.3157 3.11558 11.3431 2.80831 11.293 2.5089C11.259 2.03419 11.0753 1.58249 10.7684 1.2188C10.4614 0.855112 10.0469 0.598196 9.58467 0.485028C9.1248 0.456256 8.66559 0.550875 8.25455 0.759096C7.84351 0.967317 7.49557 1.28158 7.24672 1.66937C7.1051 1.86154 7.00513 2.08113 6.95317 2.31412C6.90122 2.5471 6.89843 2.78837 6.94499 3.02249C6.99155 3.25662 7.08643 3.47846 7.22356 3.67385C7.3607 3.86923 7.53708 4.03387 7.74144 4.15724H7.8164C7.43531 4.41842 7.08569 4.72277 6.77448 5.06423C6.5541 5.30485 6.3697 5.5777 6.22728 5.87303C6.08008 6.14067 5.98894 6.43548 5.95943 6.7395C5.92992 7.04351 5.96265 7.35035 6.05563 7.6413C6.07667 7.71773 6.12712 7.78273 6.19595 7.82206C6.26478 7.86139 6.34639 7.87186 6.42292 7.85118C6.50131 7.83008 6.56817 7.77883 6.60889 7.70861C6.64962 7.63839 6.66091 7.55491 6.6403 7.47639C6.63451 7.28363 6.67839 7.09261 6.76773 6.9217C6.86518 6.72581 6.97762 6.53841 7.10504 6.35951C7.22498 6.17212 7.3599 5.98472 7.47984 5.78233C7.77142 5.33333 8.0038 4.87609 8.22867 4.53128C8.22867 4.53128 8.22867 4.47131 8.27364 4.43383C8.51651 4.51629 8.76837 4.574 9.02323 4.60624C9.05817 4.61214 9.09394 4.61111 9.12848 4.60319C9.16303 4.59528 9.19568 4.58063 9.22456 4.5601C9.25345 4.53957 9.27801 4.51354 9.29684 4.48352C9.31567 4.45349 9.3284 4.42005 9.33431 4.38511C9.34021 4.35016 9.33918 4.3144 9.33126 4.27985C9.32334 4.24531 9.3087 4.21266 9.28817 4.18377C9.26764 4.15489 9.24161 4.13033 9.21159 4.1115C9.18156 4.09267 9.14812 4.07994 9.11318 4.07403C8.93079 4.03328 8.75262 3.97556 8.58097 3.90163C8.42246 3.83278 8.27575 3.73944 8.14622 3.62503C7.97899 3.49369 7.85973 3.31088 7.80688 3.10491C7.75403 2.89894 7.77055 2.6813 7.85388 2.48567C7.96746 2.24422 8.14342 2.03747 8.3636 1.88675C8.65774 1.62628 9.04238 1.4917 9.43475 1.51196C9.70639 1.56209 9.95456 1.69862 10.1423 1.90123C10.3301 2.10383 10.4473 2.36167 10.4767 2.63633C10.5891 3.19852 10.4317 3.79744 9.77206 3.84991C9.7282 3.84299 9.68336 3.84567 9.64062 3.85774C9.59789 3.86982 9.55829 3.89102 9.52453 3.91987C9.49078 3.94872 9.46367 3.98454 9.44509 4.02487C9.42651 4.0652 9.41688 4.10908 9.41688 4.15349C9.41688 4.19789 9.42651 4.24177 9.44509 4.2821C9.46367 4.32243 9.49078 4.35826 9.52453 4.38711C9.55829 4.41596 9.59789 4.43715 9.64062 4.44923C9.68336 4.46131 9.7282 4.46398 9.77206 4.45707C9.92824 4.4511 10.0825 4.42075 10.2293 4.36712C10.2312 4.40351 10.2409 4.43906 10.2577 4.47139C10.2745 4.50371 10.2981 4.53206 10.3268 4.55452C10.6019 4.8476 10.8312 5.18117 11.0089 5.54322L11.233 5.97797C11.5156 6.48244 11.718 7.02889 11.8327 7.59632C11.8489 7.67103 11.8917 7.73728 11.9532 7.78271C12.0147 7.82814 12.0906 7.84966 12.1668 7.84323C12.243 7.83681 12.3142 7.80289 12.3672 7.7478C12.4202 7.69271 12.4513 7.62022 12.4548 7.54385C12.4824 7.0694 12.4496 6.59336 12.3574 6.12714C12.3175 5.91996 12.252 5.71853 12.1625 5.52747" fill="#1070B9"/>
<path fill-rule="evenodd" clip-rule="evenodd" d="M11.0613 9.6344L9.56218 10.5781L9.44974 10.6681C9.50221 10.3458 9.55468 10.0159 9.58467 9.68612C9.59616 9.52121 9.59616 9.3563 9.58467 9.19139C9.59616 9.02649 9.59616 8.86183 9.58467 8.69742C9.53969 8.30764 9.44974 7.94784 9.41226 7.55056C9.41867 7.51179 9.41676 7.4721 9.40667 7.43412C9.39658 7.39615 9.37853 7.36075 9.35373 7.33027C9.32892 7.2998 9.29792 7.27494 9.26278 7.25735C9.22765 7.23976 9.18917 7.22983 9.14991 7.22824C9.07953 7.22408 9.01031 7.24764 8.95708 7.29387C8.90385 7.3401 8.87082 7.40533 8.86507 7.4756C8.74011 7.8595 8.64734 8.25314 8.58772 8.65244C8.57616 8.82215 8.57616 8.99245 8.58772 9.16216C8.58922 9.33007 8.60171 9.49747 8.6252 9.66438C8.6252 9.94922 8.70766 10.2266 8.76013 10.5114C8.67018 10.4439 8.57273 10.384 8.47528 10.324C8.04802 10.0617 7.61401 9.83679 7.17925 9.57443C7.12359 9.53169 7.05323 9.51281 6.98364 9.52195C6.91406 9.53108 6.85095 9.56749 6.80821 9.62315C6.76547 9.67882 6.74659 9.74918 6.75573 9.81877C6.76486 9.88835 6.80127 9.95146 6.85693 9.9942L8.3561 11.4544C8.49452 11.6058 8.64194 11.7482 8.79836 11.8816C8.87898 11.9475 8.9761 11.99 9.07918 12.0045C9.18225 12.0191 9.28734 12.0051 9.38303 11.9641C9.50646 11.9041 9.61865 11.8267 9.71959 11.7317C9.8845 11.5818 10.0269 11.3794 10.1544 11.252L11.4279 10.0984C11.4605 10.0747 11.4879 10.0447 11.5087 10.0102C11.5294 9.9757 11.543 9.93736 11.5486 9.89749C11.5542 9.85761 11.5517 9.81702 11.5413 9.77813C11.5308 9.73924 11.5127 9.70285 11.4879 9.67113C11.4356 9.61042 11.3617 9.57253 11.2818 9.56553C11.202 9.55853 11.1227 9.58297 11.0606 9.63365M5.14189 9.85103C4.83456 10.0084 4.53472 10.1659 4.24988 10.3383C4.04 10.4502 3.83761 10.5751 3.64272 10.713H3.59775C3.6752 10.3952 3.77015 10.0829 3.88259 9.77607C3.97254 9.57368 4.06249 9.37129 4.15993 9.1764C4.25788 8.99151 4.36532 8.81186 4.48225 8.63745C4.7188 8.18191 5.0482 7.78101 5.44922 7.46061C5.49379 7.43239 5.5294 7.39205 5.55185 7.34431C5.57431 7.29657 5.58268 7.24342 5.576 7.19109C5.56931 7.13876 5.54783 7.08943 5.51409 7.04887C5.48035 7.00832 5.43574 6.97823 5.3855 6.96213C5.35112 6.95235 5.31509 6.9497 5.27965 6.95434C5.2442 6.95898 5.21007 6.97081 5.17937 6.98912C4.59502 7.21744 4.0789 7.59163 3.6802 8.07601C3.50513 8.28271 3.35888 8.51217 3.24544 8.75814C3.132 8.998 3.04455 9.24761 2.98309 9.50697C2.90232 9.82859 2.8546 10.1576 2.84067 10.4889L1.343 9.28959C1.31793 9.26443 1.28814 9.24447 1.25534 9.23085C1.22254 9.21723 1.18737 9.21022 1.15186 9.21022C1.11634 9.21022 1.08117 9.21723 1.04837 9.23085C1.01557 9.24447 0.985782 9.26443 0.960712 9.28959C0.913831 9.34074 0.887825 9.4076 0.887825 9.47699C0.887825 9.54637 0.913831 9.61323 0.960712 9.66438L2.39991 11.4244L2.80394 11.8142C2.75896 11.8667 2.96885 11.9641 3.02881 11.9941C3.11138 12.0389 3.20487 12.0597 3.29866 12.0541C3.47168 12.0493 3.64013 11.9975 3.78589 11.9041C3.96929 11.7617 4.13895 11.6043 4.29486 11.4319C4.42229 11.2735 4.55721 11.1211 4.69963 10.9747L5.44922 10.3532C5.50773 10.3049 5.54628 10.2366 5.55747 10.1616C5.56865 10.0865 5.55167 10.01 5.50978 9.9467C5.4679 9.88341 5.40409 9.83786 5.33063 9.81881C5.25717 9.79976 5.17926 9.80857 5.1119 9.84353L5.14189 9.85103ZM17.4823 9.2746C17.4579 9.24967 17.4287 9.22986 17.3965 9.21634C17.3643 9.20282 17.3298 9.19585 17.2949 9.19585C17.26 9.19585 17.2254 9.20282 17.1932 9.21634C17.1611 9.22986 17.1319 9.24967 17.1075 9.2746L15.6083 10.4739C15.5907 10.143 15.543 9.81431 15.4659 9.49198C15.4028 9.23324 15.3124 8.98196 15.196 8.74239C15.0816 8.49882 14.9384 8.26982 14.7695 8.06027C14.3663 7.58087 13.8515 7.20788 13.2704 6.97413C13.2081 6.9426 13.136 6.93624 13.0691 6.95636C13.0023 6.97648 12.9457 7.02154 12.9111 7.08221C12.8766 7.14288 12.8666 7.21452 12.8834 7.2823C12.9002 7.35009 12.9424 7.40883 13.0013 7.44636C13.4075 7.76494 13.7419 8.16596 13.9832 8.62321C14.0882 8.80986 14.1931 8.99725 14.2906 9.19214C14.388 9.38704 14.4779 9.58942 14.5679 9.79181C14.6578 9.9942 14.7545 10.414 14.8445 10.728H14.807C14.6046 10.5931 14.4097 10.4657 14.1999 10.3532C13.99 10.2408 13.6077 10.0234 13.3004 9.86602C13.2582 9.83972 13.2103 9.82403 13.1608 9.82029C13.1112 9.81656 13.0615 9.82488 13.0159 9.84456C12.9703 9.86423 12.9302 9.89467 12.8989 9.93326C12.8676 9.97186 12.8462 10.0175 12.8364 10.0662C12.8252 10.1253 12.832 10.1865 12.8561 10.2417C12.8802 10.297 12.9203 10.3437 12.9713 10.3757L13.7209 10.9979C13.8783 11.1328 14.0282 11.2827 14.1781 11.4326C14.3315 11.6071 14.5014 11.7645 14.6878 11.9049C14.8303 11.9971 14.9959 12.0496 15.1668 12.0548C15.2606 12.0609 15.3542 12.0401 15.4367 11.9948C15.5041 11.9948 15.714 11.8674 15.6615 11.8149L16.0738 11.4252L17.504 9.66363C17.53 9.63749 17.5501 9.60618 17.5631 9.57174C17.5762 9.53729 17.5818 9.50049 17.5797 9.46373C17.5776 9.42696 17.5677 9.39105 17.5508 9.35833C17.5339 9.32562 17.5103 9.29683 17.4815 9.27385" fill="#1070B9"/>
</svg>
