<svg width="2400" height="500" viewBox="0 0 2400 500" fill="none" xmlns="http://www.w3.org/2000/svg">
<path d="M459.997 0.00088799C482.088 0.00088799 499.997 17.9095 499.997 40.0009V178.48C499.997 200.571 482.088 218.48 459.997 218.48H392.424V349.054L392.419 349.854C391.993 383.46 364.831 410.623 331.226 411.049L330.424 411.054H236.659V460C236.659 482.091 218.75 500 196.659 500H40L38.9678 499.987C17.3537 499.44 0.000457293 481.746 1.13603e-05 460V321.52C1.46586e-05 299.774 17.3535 282.081 38.9678 281.533L40 281.52H107.572V150.947C107.572 116.973 134.898 89.3813 168.771 88.9521L169.572 88.9472H263.338V40.0009C263.338 18.2546 280.691 0.561094 302.306 0.0135833L303.338 0.00088799H459.997ZM499.974 232.495C499.974 277.299 500.043 322.104 499.948 366.899C499.888 392.971 490.663 415.854 474.967 436.185C460.412 455.039 440.931 466.19 418.206 472.12C416.953 472.449 415.649 474.074 415.1 475.396C410.217 487.274 401.995 495.771 389.534 498.736C365.66 504.416 345.965 490.377 342.231 467.521C338.859 446.887 350.865 428.63 370.491 424.308C385.149 421.075 398.116 425.172 408.079 437.18C408.8 438.044 410.636 438.683 411.718 438.424C439.866 431.707 463.526 404.495 466.487 375.458C466.994 370.487 467.32 365.464 467.328 360.468C467.397 317.972 467.363 275.475 467.363 232.979C467.363 231.285 467.355 229.591 467.355 227.499H499.974V232.495ZM54 446H182.659V411.054H107.572V335.52H54V446ZM161.572 357.054H182.659V335.52H161.572V357.054ZM169.572 142.947C165.154 142.947 161.572 146.529 161.572 150.947V281.52H236.659V357.054H330.424C334.842 357.054 338.423 353.472 338.424 349.054V218.48H263.338V142.947H169.572ZM110.709 1.25968C134.637 -4.4112 154.376 9.60615 158.117 32.4276C161.497 53.031 149.465 71.2612 129.795 75.5771C115.105 78.8052 102.109 74.7137 92.1231 62.7245C91.4006 61.8614 89.5593 61.2224 88.4756 61.4814C60.2648 68.1881 36.5524 95.3604 33.585 124.353C33.0775 129.317 32.7508 134.332 32.7422 139.321C32.6734 181.754 32.708 224.187 32.708 266.619C32.708 268.311 32.7158 270.002 32.7158 272.091H0.0244254V267.102C0.0244254 222.365 -0.044793 177.628 0.049816 132.899C0.110022 106.867 9.35604 84.0189 25.0869 63.7177C39.6741 44.8923 59.1984 33.7571 81.9736 27.8358C83.2294 27.5078 84.5365 25.885 85.0869 24.5644C89.9808 12.7049 98.2207 4.22034 110.709 1.25968ZM317.338 164.48H338.424V142.947H317.338V164.48ZM317.338 88.9472H392.424V164.48H445.997V54.0009H317.338V88.9472Z" fill="#1070B9"/>
<path d="M2400 423H2313.19L2238.29 306.723H2237.38V423H2165V76H2237.38V296.881H2238.29L2308.15 188.615H2394.04L2309.98 298.712L2400 423Z" fill="white"/>
<path d="M2107 423H2035.02V292.819C2035.02 256.518 2022.07 238.367 1996.17 238.367C1983.68 238.367 1973.39 243.172 1965.32 252.781C1957.25 262.39 1953.21 274.592 1953.21 289.387V423H1881V188.72H1953.21V225.784H1954.12C1971.34 197.261 1996.4 183 2029.3 183C2081.1 183 2107 215.183 2107 279.549V423Z" fill="white"/>
<path d="M1784 151.421C1771.69 151.421 1761.61 147.833 1753.77 140.659C1745.92 133.331 1742 124.4 1742 113.867C1742 103.028 1745.92 94.1741 1753.77 87.3044C1761.61 80.4348 1771.69 77 1784 77C1796.46 77 1806.54 80.4348 1814.23 87.3044C1822.07 94.1741 1826 103.028 1826 113.867C1826 124.858 1822.07 133.865 1814.23 140.887C1806.54 147.91 1796.46 151.421 1784 151.421ZM1820 423H1747.07V188.517H1820V423Z" fill="white"/>
<path d="M1710 423H1514V94H1588.13V362.89H1710V423Z" fill="white"/>
<path d="M1464 320.615H1310.79C1313.23 354.667 1334.72 371.693 1375.24 371.693C1401.08 371.693 1423.78 365.585 1443.36 353.369V405.592C1421.64 417.197 1393.43 423 1358.72 423C1320.8 423 1291.37 412.54 1270.42 391.62C1249.47 370.547 1239 341.229 1239 303.665C1239 264.726 1250.31 233.881 1272.94 211.128C1295.57 188.376 1323.4 177 1356.43 177C1390.68 177 1417.13 187.155 1435.79 207.464C1454.59 227.773 1464 255.335 1464 290.151V320.615ZM1396.8 276.179C1396.8 242.585 1383.19 225.788 1355.97 225.788C1344.35 225.788 1334.26 230.598 1325.7 240.218C1317.29 249.838 1312.16 261.825 1310.33 276.179H1396.8Z" fill="white"/>
<path d="M1192.15 423H1120.15V76H1192.15V423Z" fill="white"/>
<path d="M944.852 423C905.728 423 874.933 412.082 852.467 390.246C830.154 368.257 818.998 338.48 818.998 300.916C818.998 262.13 830.613 231.819 853.843 209.983C877.073 187.994 908.479 177 948.061 177C987.032 177 1017.6 187.994 1039.76 209.983C1061.92 231.819 1073 260.756 1073 296.793C1073 335.732 1061.54 366.501 1038.61 389.101C1015.84 411.7 984.587 423 944.852 423ZM946.686 232.43C929.569 232.43 916.273 238.309 906.798 250.067C897.322 261.825 892.585 278.469 892.585 300C892.585 345.047 910.771 367.57 947.144 367.57C981.836 367.57 999.182 344.436 999.182 298.168C999.182 254.343 981.683 232.43 946.686 232.43Z" fill="white"/>
<path d="M795.998 423H599.998V94H674.129V362.89H795.998V423Z" fill="white"/>
</svg>
