<svg width="41" height="40" viewBox="0 0 41 40" fill="none" xmlns="http://www.w3.org/2000/svg">
<mask id="mask0_6417_1725" style="mask-type:luminance" maskUnits="userSpaceOnUse" x="0" y="0" width="41" height="41">
<path d="M40.9851 0.0100098H0.985107V40.01H40.9851V0.0100098Z" fill="white"/>
</mask>
<g mask="url(#mask0_6417_1725)">
<path d="M12.2386 29.0078C12.5484 28.1297 13.123 27.3693 13.8831 26.8315C14.6432 26.2937 15.5514 26.0049 16.4825 26.0049C17.4137 26.0049 18.3219 26.2937 19.082 26.8315C19.8421 27.3693 20.4167 28.1297 20.7265 29.0078H35.9778V32.0071H20.7265C20.4167 32.8851 19.8421 33.6455 19.082 34.1833C18.3219 34.7212 17.4137 35.01 16.4825 35.01C15.5514 35.01 14.6432 34.7212 13.8831 34.1833C13.123 33.6455 12.5484 32.8851 12.2386 32.0071H5.98511V29.0078H12.2386ZM21.2364 18.5104C21.5462 17.6323 22.1208 16.8719 22.8809 16.3341C23.641 15.7962 24.5492 15.5074 25.4803 15.5074C26.4115 15.5074 27.3197 15.7962 28.0798 16.3341C28.8399 16.8719 29.4145 17.6323 29.7243 18.5104H35.9778V21.5096H29.7243C29.4145 22.3877 28.8399 23.1481 28.0798 23.6859C27.3197 24.2238 26.4115 24.5126 25.4803 24.5126C24.5492 24.5126 23.641 24.2238 22.8809 23.6859C22.1208 23.1481 21.5462 22.3877 21.2364 21.5096H5.98511V18.5104H21.2364ZM12.2386 8.01295C12.5484 7.13487 13.123 6.3745 13.8831 5.83667C14.6432 5.29883 15.5514 5.01001 16.4825 5.01001C17.4137 5.01001 18.3219 5.29883 19.082 5.83667C19.8421 6.3745 20.4167 7.13487 20.7265 8.01295H35.9778V11.0122H20.7265C20.4167 11.8903 19.8421 12.6507 19.082 13.1885C18.3219 13.7263 17.4137 14.0151 16.4825 14.0151C15.5514 14.0151 14.6432 13.7263 13.8831 13.1885C13.123 12.6507 12.5484 11.8903 12.2386 11.0122H5.98511V8.01295H12.2386Z" fill="#1070B9"/>
</g>
</svg>
