<svg width="2400" height="500" viewBox="0 0 2400 500" fill="none" xmlns="http://www.w3.org/2000/svg">
<path d="M459.997 -8.8572e-05C482.088 -8.8572e-05 499.997 17.9085 499.997 39.9999V178.479C499.997 200.571 482.088 218.479 459.997 218.479H392.424V349.053L392.419 349.853C391.993 383.459 364.831 410.622 331.226 411.048L330.424 411.053H236.659V459.999C236.659 482.09 218.75 499.999 196.659 499.999H40L38.9678 499.986C17.3537 499.439 0.000457293 481.745 1.13603e-05 459.999V321.519C1.46586e-05 299.773 17.3535 282.08 38.9678 281.532L40 281.519H107.572V150.946C107.572 116.972 134.898 89.3804 168.771 88.9511L169.572 88.9462H263.338V39.9999C263.338 18.2536 280.691 0.560117 302.306 0.0126067L303.338 -8.8572e-05H459.997ZM499.974 232.494C499.974 277.298 500.043 322.103 499.948 366.898C499.888 392.97 490.663 415.853 474.967 436.184C460.412 455.038 440.931 466.189 418.206 472.119C416.953 472.448 415.649 474.073 415.1 475.395C410.217 487.273 401.995 495.77 389.534 498.735C365.66 504.415 345.965 490.376 342.231 467.52C338.859 446.886 350.865 428.629 370.491 424.307C385.149 421.074 398.116 425.172 408.079 437.179C408.8 438.043 410.636 438.682 411.718 438.423C439.866 431.706 463.526 404.494 466.487 375.457C466.994 370.486 467.32 365.463 467.328 360.467C467.397 317.971 467.363 275.475 467.363 232.978C467.363 231.284 467.355 229.59 467.355 227.498H499.974V232.494ZM54 445.999H182.659V411.053H107.572V335.519H54V445.999ZM161.572 357.053H182.659V335.519H161.572V357.053ZM169.572 142.946C165.154 142.946 161.572 146.528 161.572 150.946V281.519H236.659V357.053H330.424C334.842 357.053 338.423 353.471 338.424 349.053V218.479H263.338V142.946H169.572ZM110.709 1.2587C134.637 -4.41218 154.376 9.60517 158.117 32.4267C161.497 53.0301 149.465 71.2602 129.795 75.5761C115.105 78.8043 102.109 74.7127 92.1231 62.7235C91.4006 61.8604 89.5593 61.2214 88.4756 61.4804C60.2648 68.1872 36.5524 95.3594 33.585 124.352C33.0775 129.316 32.7508 134.331 32.7422 139.32C32.6734 181.753 32.708 224.186 32.708 266.618C32.708 268.31 32.7158 270.001 32.7158 272.09H0.0244254V267.101C0.0244254 222.364 -0.044793 177.627 0.049816 132.898C0.110022 106.866 9.35604 84.018 25.0869 63.7167C39.6741 44.8913 59.1984 33.7561 81.9736 27.8349C83.2294 27.5069 84.5365 25.884 85.0869 24.5634C89.9808 12.7039 98.2207 4.21937 110.709 1.2587ZM317.338 164.479H338.424V142.946H317.338V164.479ZM317.338 88.9462H392.424V164.479H445.997V53.9999H317.338V88.9462Z" fill="#1070B9"/>
<path d="M2400 422.999H2313.19L2238.29 306.722H2237.38V422.999H2165V75.999H2237.38V296.88H2238.29L2308.15 188.614H2394.04L2309.98 298.711L2400 422.999Z" fill="#3F3F3F"/>
<path d="M2107 422.999H2035.02V292.818C2035.02 256.517 2022.07 238.366 1996.17 238.366C1983.68 238.366 1973.39 243.171 1965.32 252.78C1957.25 262.389 1953.21 274.591 1953.21 289.386V422.999H1881V188.719H1953.21V225.783H1954.12C1971.34 197.26 1996.4 182.999 2029.3 182.999C2081.1 182.999 2107 215.182 2107 279.548V422.999Z" fill="#3F3F3F"/>
<path d="M1784 151.42C1771.69 151.42 1761.61 147.832 1753.77 140.658C1745.92 133.33 1742 124.399 1742 113.866C1742 103.027 1745.92 94.1731 1753.77 87.3035C1761.61 80.4338 1771.69 76.999 1784 76.999C1796.46 76.999 1806.54 80.4338 1814.23 87.3035C1822.07 94.1731 1826 103.027 1826 113.866C1826 124.857 1822.07 133.864 1814.23 140.887C1806.54 147.909 1796.46 151.42 1784 151.42ZM1820 422.999H1747.07V188.516H1820V422.999Z" fill="#3F3F3F"/>
<path d="M1710 422.999H1514V93.999H1588.13V362.889H1710V422.999Z" fill="#3F3F3F"/>
<path d="M1464 320.614H1310.79C1313.23 354.666 1334.72 371.692 1375.24 371.692C1401.08 371.692 1423.78 365.584 1443.36 353.368V405.591C1421.64 417.196 1393.43 422.999 1358.72 422.999C1320.8 422.999 1291.37 412.539 1270.42 391.619C1249.47 370.547 1239 341.228 1239 303.664C1239 264.725 1250.31 233.88 1272.94 211.128C1295.57 188.375 1323.4 176.999 1356.43 176.999C1390.68 176.999 1417.13 187.154 1435.79 207.463C1454.59 227.772 1464 255.334 1464 290.15V320.614ZM1396.8 276.178C1396.8 242.584 1383.19 225.787 1355.97 225.787C1344.35 225.787 1334.26 230.597 1325.7 240.217C1317.29 249.837 1312.16 261.824 1310.33 276.178H1396.8Z" fill="#3F3F3F"/>
<path d="M1192.15 422.999H1120.15V75.999H1192.15V422.999Z" fill="#3F3F3F"/>
<path d="M944.852 422.999C905.728 422.999 874.933 412.081 852.467 390.245C830.154 368.256 818.998 338.479 818.998 300.915C818.998 262.129 830.613 231.818 853.843 209.982C877.073 187.993 908.479 176.999 948.061 176.999C987.032 176.999 1017.6 187.993 1039.76 209.982C1061.92 231.818 1073 260.755 1073 296.792C1073 335.731 1061.54 366.5 1038.61 389.1C1015.84 411.699 984.587 422.999 944.852 422.999ZM946.686 232.429C929.569 232.429 916.273 238.308 906.798 250.066C897.322 261.824 892.585 278.468 892.585 299.999C892.585 345.046 910.771 367.569 947.144 367.569C981.836 367.569 999.182 344.435 999.182 298.167C999.182 254.342 981.683 232.429 946.686 232.429Z" fill="#3F3F3F"/>
<path d="M795.998 422.999H599.998V93.999H674.129V362.889H795.998V422.999Z" fill="#3F3F3F"/>
</svg>
