<svg width="18" height="19" viewBox="0 0 18 19" fill="none" xmlns="http://www.w3.org/2000/svg">
<path d="M8.98486 2.13013C9.91312 2.13013 10.8031 2.49914 11.4595 3.15552C11.7367 3.4327 12.0025 4.01437 12.1978 4.73071C12.3294 5.21392 12.4136 5.71138 12.4546 6.13013H5.51514C5.5561 5.71138 5.6403 5.21392 5.77197 4.73071C5.9672 4.01437 6.23307 3.4327 6.51025 3.15552C7.16663 2.49914 8.05661 2.13013 8.98486 2.13013Z" stroke="#1070B9"/>
<path d="M12.9849 7.63013C12.9849 8.69099 12.5634 9.70841 11.8133 10.4586C11.0631 11.2087 10.0457 11.6301 8.98486 11.6301C7.924 11.6301 6.90658 11.2087 6.15644 10.4586C5.40629 9.70841 4.98486 8.69099 4.98486 7.63013" stroke="#1070B9"/>
<rect x="2.5" y="6.51978" width="13" height="10" rx="1.5" stroke="#1070B9"/>
</svg>
