<svg width="20" height="20" viewBox="0 0 20 20" fill="none" xmlns="http://www.w3.org/2000/svg">
<path d="M11.4317 17.5C11.2851 17.7525 11.0749 17.9622 10.8218 18.1079C10.5688 18.2536 10.282 18.3303 9.98999 18.3303C9.69801 18.3303 9.41115 18.2536 9.15813 18.1079C8.90512 17.9622 8.69483 17.7525 8.54832 17.5M14.99 6.99996C14.99 5.58579 14.4633 4.22913 13.5258 3.22913C12.5883 2.22913 11.315 1.66663 9.98999 1.66663C8.66499 1.66663 7.39249 2.22829 6.45416 3.22913C5.51666 4.22913 4.98999 5.58579 4.98999 6.99996C4.98999 13.2225 2.48999 15 2.48999 15H17.49C17.49 15 14.99 13.2225 14.99 6.99996Z" stroke="#111827" stroke-width="1.25" stroke-linecap="round" stroke-linejoin="round"/>
</svg>
