<svg width="44" height="44" viewBox="0 0 44 44" fill="none" xmlns="http://www.w3.org/2000/svg">
<mask id="mask0_6417_1636" style="mask-type:luminance" maskUnits="userSpaceOnUse" x="-1" y="0" width="45" height="44">
<path d="M43.98 0.00500488H-0.0100098V43.995H43.98V0.00500488Z" fill="white"/>
</mask>
<g mask="url(#mask0_6417_1636)">
<path d="M23.186 4.24871L38.2064 13.2599C38.3334 13.336 38.4385 13.4436 38.5115 13.5723C38.5844 13.7011 38.6228 13.8466 38.6228 13.9946C38.6228 14.1426 38.5844 14.2881 38.5115 14.4168C38.4385 14.5455 38.3334 14.6532 38.2064 14.7292L22.3058 24.2696L6.40521 14.7292C6.27822 14.6532 6.1731 14.5455 6.10012 14.4168C6.02713 14.2881 5.98877 14.1426 5.98877 13.9946C5.98877 13.8466 6.02713 13.7011 6.10012 13.5723C6.1731 13.4436 6.27822 13.336 6.40521 13.2599L21.4239 4.24871C21.6902 4.08869 21.9951 4.00415 22.3058 4.00415C22.6165 4.00415 22.9214 4.08869 23.1877 4.24871H23.186Z" fill="#1070B9"/>
<path d="M36.148 19.9878L38.2064 21.2225C38.3335 21.2985 38.4385 21.4062 38.5115 21.535C38.5845 21.6638 38.6229 21.8092 38.6229 21.9572C38.6229 22.1052 38.5845 22.2506 38.5115 22.3794C38.4385 22.5082 38.3335 22.6159 38.2064 22.6919L22.3059 32.2322L6.40522 22.6919C6.27822 22.6159 6.17311 22.5082 6.10013 22.3794C6.02714 22.2506 5.98877 22.1052 5.98877 21.9572C5.98877 21.8092 6.02714 21.6638 6.10013 21.535C6.17311 21.4062 6.27822 21.2985 6.40522 21.2225L8.46364 19.9878L22.3059 28.2934L36.148 19.9878ZM36.148 28.0366L38.2064 29.2713C38.3335 29.3473 38.4385 29.455 38.5115 29.5838C38.5845 29.7124 38.6229 29.8579 38.6229 30.006C38.6229 30.154 38.5845 30.2994 38.5115 30.4282C38.4385 30.557 38.3335 30.6647 38.2064 30.7406L23.1878 39.7518C22.9214 39.9118 22.6165 39.9964 22.3059 39.9964C21.9951 39.9964 21.6902 39.9118 21.4238 39.7518L6.40522 30.7406C6.27822 30.6647 6.17311 30.557 6.10013 30.4282C6.02714 30.2994 5.98877 30.154 5.98877 30.006C5.98877 29.8579 6.02714 29.7124 6.10013 29.5838C6.17311 29.455 6.27822 29.3473 6.40522 29.2713L8.46364 28.0366L22.3059 36.3422L36.148 28.0366Z" fill="#1070B9"/>
</g>
</svg>
