<svg width="45" height="44" viewBox="0 0 45 44" fill="none" xmlns="http://www.w3.org/2000/svg">
<mask id="mask0_6417_1592" style="mask-type:luminance" maskUnits="userSpaceOnUse" x="0" y="0" width="45" height="44">
<path d="M44.3198 0.00500488H0.329834V43.995H44.3198V0.00500488Z" fill="white"/>
</mask>
<g mask="url(#mask0_6417_1592)">
<path d="M22.3255 3.67102C32.449 3.67102 40.6552 11.8772 40.6552 22.0007C40.6552 32.1242 32.449 40.3303 22.3255 40.3303C12.202 40.3303 3.99585 32.1242 3.99585 22.0007C3.99585 11.8772 12.202 3.67102 22.3255 3.67102ZM22.3255 7.33695C18.4364 7.33695 14.7066 8.88188 11.9567 11.6319C9.20671 14.3818 7.66178 18.1116 7.66178 22.0007C7.66178 25.8897 9.20671 29.6195 11.9567 32.3695C14.7066 35.1195 18.4364 36.6644 22.3255 36.6644C26.2145 36.6644 29.9444 35.1195 32.6943 32.3695C35.4443 29.6195 36.9893 25.8897 36.9893 22.0007C36.9893 18.1116 35.4443 14.3818 32.6943 11.6319C29.9444 8.88188 26.2145 7.33695 22.3255 7.33695ZM16.5022 28.1283L15.0542 30.6395C14.9552 30.8113 14.8234 30.962 14.6663 31.083C14.5091 31.2039 14.3296 31.2926 14.1382 31.3442C13.9466 31.3958 13.7468 31.4091 13.5502 31.3835C13.3536 31.3579 13.164 31.2937 12.9921 31.1949C12.8202 31.0959 12.6695 30.9641 12.5486 30.8069C12.4276 30.6498 12.3388 30.4703 12.2872 30.2788C12.2357 30.0874 12.2223 29.8876 12.2479 29.691C12.2736 29.4943 12.3377 29.3046 12.4367 29.1328L13.5163 27.2705C14.726 26.8928 15.7176 27.1825 16.5022 28.1283ZM24.5434 15.8785L28.9847 23.566H32.9091C33.1072 23.5653 33.3035 23.6038 33.4868 23.6792C33.6701 23.7547 33.8365 23.8655 33.9767 24.0056C34.117 24.1457 34.228 24.312 34.3037 24.4951C34.3794 24.6783 34.4181 24.8746 34.4176 25.0727C34.4183 25.2711 34.3798 25.4675 34.3042 25.6509C34.2286 25.8342 34.1176 26.0008 33.9774 26.1411C33.8371 26.2812 33.6706 26.3923 33.4872 26.4679C33.3038 26.5435 33.1074 26.582 32.9091 26.5813H30.7278L32.1997 29.1309C32.3862 29.4769 32.4305 29.8819 32.3231 30.2601C32.2157 30.6382 31.9652 30.9595 31.6248 31.156C31.2842 31.3523 30.8806 31.4082 30.4996 31.3117C30.1186 31.2154 29.7901 30.9741 29.5841 30.6395L24.0119 20.987C22.7471 18.8058 23.649 16.6191 24.5434 15.8785ZM25.053 10.299C25.777 10.7133 26.0208 11.6371 25.6066 12.3611L19.1399 23.5587H23.8194C25.3334 23.5587 26.184 25.3403 25.5259 26.5739H11.8153C11.6172 26.5744 11.4208 26.5357 11.2377 26.46C11.0546 26.3844 10.8882 26.2733 10.7481 26.1331C10.6082 25.9929 10.4972 25.8263 10.4218 25.6432C10.3463 25.4599 10.3079 25.2636 10.3086 25.0654C10.3081 24.8674 10.3467 24.6713 10.4223 24.4882C10.4978 24.3052 10.6088 24.139 10.7488 23.9989C10.8888 23.8589 11.0551 23.748 11.2381 23.6724C11.4211 23.5969 11.6173 23.5582 11.8153 23.5587H15.6591L20.5806 15.0299L19.0445 12.3611C18.858 12.0151 18.8137 11.6101 18.9211 11.232C19.0285 10.8538 19.2789 10.5325 19.6195 10.3361C19.9599 10.1398 20.3635 10.0838 20.7446 10.1803C21.1257 10.2767 21.4541 10.5179 21.6602 10.8525L22.3182 12.0128L22.9909 10.8525C23.0898 10.6808 23.2216 10.53 23.3789 10.4092C23.5361 10.2883 23.7156 10.1997 23.9071 10.1483C24.0987 10.0968 24.2984 10.0837 24.4951 10.1096C24.6917 10.1355 24.8812 10.1998 25.053 10.299Z" fill="#1070B9"/>
</g>
</svg>
