<svg width="16" height="17" viewBox="0 0 16 17" fill="none" xmlns="http://www.w3.org/2000/svg">
<g clip-path="url(#clip0_6863_24)">
<path fill-rule="evenodd" clip-rule="evenodd" d="M15.118 10.7664C14.5767 9.94505 11.7247 7.15305 11.01 6.39839C9.89467 5.21572 9.126 3.89972 7.67 3.57305C6.75534 3.35905 2.126 3.93305 2.86067 4.69505C2.88241 4.71733 2.90838 4.73503 2.93706 4.74711C2.96574 4.7592 2.99655 4.76543 3.02767 4.76543C3.05879 4.76543 3.0896 4.7592 3.11828 4.74711C3.14696 4.73503 3.17294 4.71733 3.19467 4.69505C3.51534 4.38105 5.79334 4.07372 7.55 4.14039C8.35541 4.42345 9.04378 4.9664 9.50667 5.68372C10.4753 6.89905 13.922 10.4791 14.376 11.0937C14.4569 11.2142 14.526 11.3411 14.5833 11.4744C13.6709 12.8649 12.5615 14.1157 11.29 15.1877C10.8559 15.547 10.3539 15.8152 9.814 15.9764C8.80084 15.2119 7.83506 14.3866 6.922 13.5051C5.83704 12.4195 4.80708 11.2803 3.836 10.0917C3.36477 9.40919 3.11736 8.59705 3.128 7.76772C3.128 7.71282 3.1062 7.66017 3.06738 7.62135C3.02856 7.58253 2.9759 7.56072 2.921 7.56072C2.8661 7.56072 2.81345 7.58253 2.77463 7.62135C2.73581 7.66017 2.714 7.71282 2.714 7.76772C2.80067 9.65105 3.20134 10.1184 4.41734 11.5744C5.76326 13.3142 7.31526 14.8843 9.03934 16.2504C9.17354 16.4368 9.36497 16.5742 9.5845 16.6417C9.80402 16.7092 10.0396 16.7031 10.2553 16.6244C11.9987 16.0897 13.9687 13.5584 14.9707 12.2831C15.3447 11.7951 15.586 11.4944 15.118 10.7664Z" fill="#1070B9"/>
<path fill-rule="evenodd" clip-rule="evenodd" d="M5.81333 7.19324C6.06666 6.48524 6.14 6.0979 5.56666 5.6499C5.41179 5.51981 5.23172 5.4231 5.03773 5.36582C4.84375 5.30854 4.64003 5.29193 4.43933 5.31703C4.23863 5.34212 4.04527 5.40838 3.87136 5.51166C3.69745 5.61494 3.54674 5.75302 3.42866 5.91724C2.84889 5.56686 2.33749 5.1142 1.91933 4.58124C1.144 3.71324 0.395998 2.2639 1.26466 1.50924C1.63133 1.1819 2.28 1.3559 2.91466 1.72924C4.37733 2.56457 4.324 3.43924 4.72466 3.19857C5.28533 2.85857 3.54866 1.35524 2.814 0.987903C1.084 0.113237 -0.0846691 1.28857 0.109331 2.75124C0.349331 4.5279 1.75866 5.73057 3.322 6.50457C3.62866 8.46924 5.566 7.9079 5.81333 7.19324ZM5.54666 6.6119C5.52278 6.81403 5.42814 7.00118 5.27951 7.14023C5.13088 7.27928 4.93784 7.36125 4.73458 7.37163C4.53131 7.38201 4.33093 7.32013 4.16891 7.19694C4.00688 7.07375 3.89368 6.89721 3.84933 6.69857C4.14333 6.80524 4.41066 6.80524 4.43733 6.6319C4.464 6.45857 4.09 6.2719 3.82933 6.13124C4.57733 5.2359 5.70733 6.06457 5.54666 6.6119ZM15.3913 5.10924C13.0207 4.08724 13.6613 4.3679 10.3487 3.4659C10.2953 3.4659 9.95466 3.29924 9.76733 3.4259C9.73701 3.45458 9.71519 3.49108 9.70429 3.53137C9.69339 3.57166 9.69382 3.61417 9.70554 3.65423C9.71727 3.69429 9.73982 3.73033 9.77072 3.75839C9.80162 3.78644 9.83967 3.80542 9.88066 3.81324C10.3371 3.94657 10.7824 4.10924 11.2167 4.30124C12.4587 4.87858 13.7372 5.37386 15.044 5.7839C15.5987 6.03057 14.6773 7.99457 14.684 8.45524C14.684 8.51712 14.7086 8.57647 14.7523 8.62023C14.7961 8.66399 14.8554 8.68857 14.9173 8.68857C14.9792 8.68857 15.0386 8.66399 15.0823 8.62023C15.1261 8.57647 15.1507 8.51712 15.1507 8.45524C15.1707 7.90124 16.6807 5.8179 15.3913 5.10924ZM6.56133 8.8499C6.50675 8.81898 6.46021 8.77565 6.42547 8.72342C6.39073 8.67119 6.36876 8.61153 6.36133 8.54924C6.36721 8.51382 6.3653 8.47754 6.35574 8.44293C6.34618 8.40832 6.32921 8.37621 6.30599 8.34882C6.28277 8.32144 6.25387 8.29943 6.22129 8.28434C6.18871 8.26925 6.15323 8.26143 6.11733 8.26143C6.08143 8.26143 6.04595 8.26925 6.01337 8.28434C5.98079 8.29943 5.95189 8.32144 5.92867 8.34882C5.90546 8.37621 5.88848 8.40832 5.87892 8.44293C5.86936 8.47754 5.86746 8.51382 5.87333 8.54924C5.85287 8.73975 5.89285 8.93188 5.98761 9.09842C6.08236 9.26497 6.2271 9.39749 6.40133 9.47724C6.50213 9.52299 6.61096 9.54842 6.72159 9.55207C6.83223 9.55572 6.94249 9.53752 7.04609 9.49851C7.14968 9.4595 7.24457 9.40045 7.32531 9.32473C7.40606 9.24901 7.47108 9.15811 7.51666 9.05724C7.60333 8.9039 7.65066 8.7319 7.65666 8.5559C7.6594 8.40337 7.63455 8.2516 7.58333 8.1079C7.41666 7.6479 7.176 7.3399 7.89666 7.91457C7.93448 7.94992 7.98353 7.97085 8.03522 7.97369C8.08691 7.97654 8.13795 7.96112 8.17942 7.93014C8.22089 7.89915 8.25015 7.85458 8.26208 7.8042C8.274 7.75383 8.26784 7.70086 8.24466 7.65457C7.824 7.12657 7.32266 6.65857 6.822 7.20657C6.74818 7.29971 6.69464 7.40724 6.66479 7.52227C6.63494 7.6373 6.62945 7.75729 6.64866 7.87457C6.64866 8.09457 6.78866 8.29524 6.822 8.54257C6.84126 8.60785 6.84126 8.6773 6.822 8.74257C6.74866 8.8359 6.662 8.90924 6.56133 8.84924M9.22666 8.3819C9.07066 8.3819 8.91911 8.40857 8.772 8.4619C8.5696 8.53696 8.38371 8.65062 8.22466 8.79657C8.03444 8.98324 7.85622 9.18124 7.69 9.39057L7.37666 9.75124L7.022 10.1786C6.99199 10.2216 6.97835 10.274 6.98354 10.3262C6.98873 10.3784 7.01241 10.427 7.05031 10.4633C7.0882 10.4996 7.13782 10.5211 7.19021 10.5241C7.24259 10.527 7.2943 10.5111 7.336 10.4792L7.74333 10.1259L7.83666 10.0526V10.1192C7.87345 10.2058 7.93954 10.2766 8.02333 10.3192C8.13066 10.3859 8.22466 10.4059 8.33133 10.4659C8.178 10.6192 8.018 10.7866 7.87066 10.9206C7.84528 10.9411 7.82419 10.9665 7.8086 10.9952C7.79302 11.024 7.78325 11.0555 7.77984 11.088C7.77644 11.1205 7.77947 11.1533 7.78876 11.1847C7.79805 11.216 7.81342 11.2452 7.834 11.2706C7.85457 11.296 7.87994 11.317 7.90867 11.3326C7.93739 11.3482 7.9689 11.358 8.0014 11.3614C8.0339 11.3648 8.06676 11.3618 8.09809 11.3525C8.12942 11.3432 8.15861 11.3278 8.184 11.3072C8.48533 11.0939 8.85266 10.8472 9.16 10.5732C9.38755 10.3755 9.58778 10.1528 9.76066 9.90524C9.89266 9.66257 9.94666 9.38524 9.914 9.1099C9.90588 8.9924 9.87461 8.87765 9.82198 8.77228C9.76935 8.6669 9.6964 8.57298 9.60733 8.4959C9.49273 8.42505 9.36136 8.38527 9.22666 8.3819ZM9.13333 9.53857C9.02341 9.74757 8.88866 9.94254 8.732 10.1192C8.71052 10.0114 8.67697 9.90627 8.632 9.8059C8.59252 9.71579 8.52766 9.63911 8.44533 9.58524C8.52533 9.51857 8.60533 9.4519 8.692 9.3919C8.77866 9.33124 9.48066 8.8839 9.13333 9.53857ZM10.2353 10.3459L9.29333 11.0139C9.10522 11.1718 8.94105 11.3561 8.806 11.5612C8.74951 11.6708 8.72005 11.7923 8.72005 11.9156C8.72005 12.0388 8.74951 12.1603 8.806 12.2699L8.95933 12.5366L9.17933 12.7972C9.1999 12.8223 9.22521 12.843 9.2538 12.8583C9.28239 12.8735 9.3137 12.883 9.34596 12.8862C9.37821 12.8893 9.41077 12.8861 9.44177 12.8767C9.47278 12.8673 9.50163 12.8518 9.52666 12.8312C9.5517 12.8107 9.57244 12.7854 9.5877 12.7568C9.60296 12.7282 9.61244 12.6969 9.6156 12.6646C9.61876 12.6324 9.61553 12.5998 9.6061 12.5688C9.59668 12.5378 9.58124 12.5089 9.56066 12.4839L9.474 12.2692L9.40733 12.0426V11.9759C9.40733 11.9559 9.50066 11.8892 9.54733 11.8426L9.84733 11.5612L10.5153 10.6466C10.5416 10.6285 10.5637 10.605 10.58 10.5776C10.5963 10.5502 10.6064 10.5196 10.6097 10.4879C10.613 10.4562 10.6094 10.4241 10.5991 10.3939C10.5887 10.3638 10.572 10.3362 10.55 10.3132C10.5279 10.2901 10.5012 10.2721 10.4715 10.2604C10.4418 10.2488 10.41 10.2437 10.3782 10.2455C10.3463 10.2474 10.3153 10.2561 10.2872 10.2711C10.2591 10.2862 10.2345 10.3071 10.2153 10.3326L10.2353 10.3459ZM11.404 12.2292L11.504 12.3759C11.5458 12.4199 11.5902 12.4601 11.6373 12.4966C12.1787 12.9239 12.2653 12.8772 12.366 12.8039C12.466 12.7306 12.5793 12.7039 12.2527 12.0092C12.2233 11.9477 12.1873 11.8896 12.1453 11.8359C12.1006 11.7825 12.049 11.7353 11.992 11.6952C11.4507 11.3346 11.324 11.4079 10.5487 12.0286C10.462 12.0959 10.402 12.1826 10.322 12.2559C10.2353 12.3426 10.142 12.4226 10.0613 12.5166C9.97911 12.6281 9.908 12.7461 9.848 12.8706C9.788 12.9979 9.76133 13.1372 9.768 13.2779C9.78333 13.4432 9.84133 13.6019 9.93466 13.7392C10.0213 13.8592 10.462 14.4072 10.7093 14.1259C10.956 13.8459 10.636 13.7792 10.5027 13.4919C10.4819 13.4223 10.4819 13.3482 10.5027 13.2786L10.636 13.1312L10.7027 13.1846C11.2433 13.5252 11.3307 13.4646 11.4173 13.3846C11.504 13.3046 11.5773 13.2112 11.2773 12.6506C11.2518 12.5988 11.218 12.5515 11.1773 12.5106L11.4307 12.2026C11.4253 12.2144 11.4158 12.2239 11.404 12.2292Z" fill="#1070B9"/>
</g>
<defs>
<clipPath id="clip0_6863_24">
<rect width="16" height="16" fill="white" transform="translate(0 0.687988)"/>
</clipPath>
</defs>
</svg>
