<svg width="16" height="17" viewBox="0 0 16 17" fill="none" xmlns="http://www.w3.org/2000/svg">
<path fill-rule="evenodd" clip-rule="evenodd" d="M15.118 10.2981C14.5767 9.47679 11.7247 6.68479 11.01 5.93012C9.89466 4.74746 9.126 3.43146 7.67 3.10479C6.75533 2.89079 2.126 3.46479 2.86066 4.22679C2.8824 4.24907 2.90837 4.26677 2.93705 4.27885C2.96573 4.29094 2.99654 4.29717 3.02766 4.29717C3.05879 4.29717 3.08959 4.29094 3.11827 4.27885C3.14695 4.26677 3.17293 4.24907 3.19466 4.22679C3.51533 3.91279 5.79333 3.60546 7.55 3.67212C8.35541 3.95519 9.04377 4.49814 9.50666 5.21546C10.4753 6.43079 13.922 10.0108 14.376 10.6255C14.4569 10.7459 14.526 10.8728 14.5833 11.0061C13.6709 12.3966 12.5615 13.6474 11.29 14.7195C10.8559 15.0787 10.3539 15.3469 9.814 15.5081C8.80083 14.7437 7.83505 13.9184 6.922 13.0368C5.83703 11.9512 4.80708 10.812 3.836 9.62346C3.36476 8.94093 3.11735 8.12879 3.128 7.29946C3.128 7.24456 3.10619 7.19191 3.06737 7.15309C3.02855 7.11427 2.9759 7.09246 2.921 7.09246C2.8661 7.09246 2.81345 7.11427 2.77463 7.15309C2.73581 7.19191 2.714 7.24456 2.714 7.29946C2.80066 9.18279 3.20133 9.65012 4.41733 11.1061C5.76326 12.8459 7.31526 14.4161 9.03933 15.7821C9.17353 15.9685 9.36497 16.1059 9.58449 16.1734C9.80401 16.241 10.0396 16.2349 10.2553 16.1561C11.9987 15.6215 13.9687 13.0901 14.9707 11.8148C15.3447 11.3268 15.586 11.0261 15.118 10.2981Z" fill="black"/>
<path fill-rule="evenodd" clip-rule="evenodd" d="M5.81333 6.72498C6.06666 6.01698 6.14 5.62964 5.56666 5.18164C5.41179 5.05155 5.23172 4.95484 5.03773 4.89756C4.84375 4.84028 4.64003 4.82367 4.43933 4.84876C4.23863 4.87386 4.04527 4.94012 3.87136 5.0434C3.69745 5.14668 3.54674 5.28475 3.42866 5.44898C2.84889 5.0986 2.33749 4.64593 1.91933 4.11298C1.144 3.24498 0.395998 1.79564 1.26466 1.04098C1.63133 0.713642 2.28 0.887642 2.91466 1.26098C4.37733 2.09631 4.324 2.97098 4.72466 2.73031C5.28533 2.39031 3.54866 0.886975 2.814 0.519642C1.084 -0.355025 -0.0846691 0.820308 0.109331 2.28298C0.349331 4.05964 1.75866 5.26231 3.322 6.03631C3.62866 8.00098 5.566 7.43964 5.81333 6.72498ZM5.54666 6.14364C5.52278 6.34577 5.42814 6.53292 5.27951 6.67197C5.13088 6.81102 4.93784 6.89299 4.73458 6.90337C4.53131 6.91375 4.33093 6.85186 4.16891 6.72868C4.00688 6.60549 3.89368 6.42895 3.84933 6.23031C4.14333 6.33698 4.41066 6.33698 4.43733 6.16364C4.464 5.99031 4.09 5.80364 3.82933 5.66298C4.57733 4.76764 5.70733 5.59631 5.54666 6.14364ZM15.3913 4.64097C13.0207 3.61898 13.6613 3.89964 10.3487 2.99764C10.2953 2.99764 9.95466 2.83098 9.76733 2.95764C9.73701 2.98632 9.71519 3.02282 9.70429 3.06311C9.69339 3.10339 9.69382 3.14591 9.70554 3.18597C9.71727 3.22603 9.73982 3.26207 9.77072 3.29013C9.80162 3.31818 9.83967 3.33716 9.88066 3.34498C10.3371 3.47831 10.7824 3.64098 11.2167 3.83298C12.4587 4.41032 13.7372 4.9056 15.044 5.31564C15.5987 5.56231 14.6773 7.52631 14.684 7.98698C14.684 8.04886 14.7086 8.10821 14.7523 8.15197C14.7961 8.19573 14.8554 8.22031 14.9173 8.22031C14.9792 8.22031 15.0386 8.19573 15.0823 8.15197C15.1261 8.10821 15.1507 8.04886 15.1507 7.98698C15.1707 7.43298 16.6807 5.34964 15.3913 4.64097ZM6.56133 8.38164C6.50675 8.35072 6.46021 8.30739 6.42547 8.25516C6.39073 8.20293 6.36876 8.14326 6.36133 8.08098C6.36721 8.04556 6.3653 8.00928 6.35574 7.97467C6.34618 7.94006 6.32921 7.90795 6.30599 7.88056C6.28277 7.85318 6.25387 7.83117 6.22129 7.81608C6.18871 7.80099 6.15323 7.79317 6.11733 7.79317C6.08143 7.79317 6.04595 7.80099 6.01337 7.81608C5.98079 7.83117 5.95189 7.85318 5.92867 7.88056C5.90546 7.90795 5.88848 7.94006 5.87892 7.97467C5.86936 8.00928 5.86746 8.04556 5.87333 8.08098C5.85287 8.27149 5.89285 8.46362 5.98761 8.63016C6.08236 8.79671 6.2271 8.92923 6.40133 9.00898C6.50213 9.05473 6.61096 9.08016 6.72159 9.08381C6.83223 9.08746 6.94249 9.06926 7.04609 9.03025C7.14968 8.99124 7.24457 8.93219 7.32531 8.85647C7.40606 8.78075 7.47108 8.68985 7.51666 8.58898C7.60333 8.43564 7.65066 8.26364 7.65666 8.08764C7.6594 7.93511 7.63455 7.78334 7.58333 7.63964C7.41666 7.17964 7.176 6.87164 7.89666 7.44631C7.93448 7.48166 7.98353 7.50259 8.03522 7.50543C8.08691 7.50828 8.13795 7.49286 8.17942 7.46188C8.22089 7.43089 8.25015 7.38631 8.26208 7.33594C8.274 7.28556 8.26784 7.2326 8.24466 7.18631C7.824 6.65831 7.32266 6.19031 6.822 6.73831C6.74818 6.83145 6.69464 6.93897 6.66479 7.054C6.63494 7.16904 6.62945 7.28903 6.64866 7.40631C6.64866 7.62631 6.78866 7.82698 6.822 8.07431C6.84126 8.13958 6.84126 8.20903 6.822 8.27431C6.74866 8.36764 6.662 8.44098 6.56133 8.38098M9.22666 7.91364C9.07066 7.91364 8.91911 7.94031 8.772 7.99364C8.5696 8.0687 8.38371 8.18236 8.22466 8.32831C8.03444 8.51498 7.85622 8.71298 7.69 8.92231L7.37666 9.28298L7.022 9.71031C6.99199 9.75335 6.97835 9.80569 6.98354 9.85791C6.98873 9.91012 7.01241 9.95875 7.05031 9.99504C7.0882 10.0313 7.13782 10.0529 7.19021 10.0558C7.24259 10.0587 7.2943 10.0428 7.336 10.011L7.74333 9.65764L7.83666 9.58431V9.65098C7.87345 9.73751 7.93954 9.80832 8.02333 9.85098C8.13066 9.91764 8.22466 9.93764 8.33133 9.99764C8.178 10.151 8.018 10.3183 7.87066 10.4523C7.84528 10.4729 7.82419 10.4983 7.8086 10.527C7.79302 10.5557 7.78325 10.5872 7.77984 10.6197C7.77644 10.6522 7.77947 10.6851 7.78876 10.7164C7.79805 10.7477 7.81342 10.7769 7.834 10.8023C7.85457 10.8277 7.87994 10.8488 7.90867 10.8644C7.93739 10.88 7.9689 10.8897 8.0014 10.8931C8.0339 10.8965 8.06676 10.8935 8.09809 10.8842C8.12942 10.8749 8.15861 10.8595 8.184 10.839C8.48533 10.6256 8.85266 10.379 9.16 10.105C9.38755 9.9072 9.58778 9.68453 9.76066 9.43698C9.89266 9.19431 9.94666 8.91698 9.914 8.64164C9.90588 8.52413 9.87461 8.40939 9.82198 8.30402C9.76935 8.19864 9.6964 8.10472 9.60733 8.02764C9.49273 7.95679 9.36136 7.91701 9.22666 7.91364ZM9.13333 9.07031C9.02341 9.27931 8.88866 9.47428 8.732 9.65098C8.71052 9.54311 8.67697 9.43801 8.632 9.33764C8.59252 9.24752 8.52766 9.17085 8.44533 9.11698C8.52533 9.05031 8.60533 8.98364 8.692 8.92364C8.77866 8.86298 9.48066 8.41564 9.13333 9.07031ZM10.2353 9.87764L9.29333 10.5456C9.10522 10.7035 8.94105 10.8879 8.806 11.093C8.74951 11.2025 8.72005 11.324 8.72005 11.4473C8.72005 11.5706 8.74951 11.6921 8.806 11.8016L8.95933 12.0683L9.17933 12.329C9.1999 12.354 9.22521 12.3748 9.2538 12.39C9.28239 12.4053 9.3137 12.4148 9.34596 12.4179C9.37821 12.4211 9.41077 12.4178 9.44177 12.4084C9.47278 12.399 9.50163 12.3835 9.52666 12.363C9.5517 12.3424 9.57244 12.3171 9.5877 12.2885C9.60296 12.2599 9.61244 12.2286 9.6156 12.1964C9.61876 12.1641 9.61553 12.1315 9.6061 12.1005C9.59668 12.0695 9.58124 12.0407 9.56066 12.0156L9.474 11.801L9.40733 11.5743V11.5076C9.40733 11.4876 9.50066 11.421 9.54733 11.3743L9.84733 11.093L10.5153 10.1783C10.5416 10.1603 10.5637 10.1367 10.58 10.1093C10.5963 10.0819 10.6064 10.0513 10.6097 10.0196C10.613 9.9879 10.6094 9.95585 10.5991 9.92568C10.5887 9.89552 10.572 9.86795 10.55 9.8449C10.5279 9.82185 10.5012 9.80386 10.4715 9.79217C10.4418 9.78049 10.41 9.7754 10.3782 9.77724C10.3463 9.77909 10.3153 9.78783 10.2872 9.80287C10.2591 9.8179 10.2345 9.83886 10.2153 9.86431L10.2353 9.87764ZM11.404 11.761L11.504 11.9076C11.5458 11.9516 11.5902 11.9919 11.6373 12.0283C12.1787 12.4556 12.2653 12.409 12.366 12.3356C12.466 12.2623 12.5793 12.2356 12.2527 11.541C12.2233 11.4795 12.1873 11.4213 12.1453 11.3676C12.1006 11.3143 12.049 11.267 11.992 11.227C11.4507 10.8663 11.324 10.9396 10.5487 11.5603C10.462 11.6276 10.402 11.7143 10.322 11.7876C10.2353 11.8743 10.142 11.9543 10.0613 12.0483C9.97911 12.1599 9.908 12.2779 9.848 12.4023C9.788 12.5296 9.76133 12.669 9.768 12.8096C9.78333 12.975 9.84133 13.1336 9.93466 13.271C10.0213 13.391 10.462 13.939 10.7093 13.6576C10.956 13.3776 10.636 13.311 10.5027 13.0236C10.4819 12.954 10.4819 12.8799 10.5027 12.8103L10.636 12.663L10.7027 12.7163C11.2433 13.057 11.3307 12.9963 11.4173 12.9163C11.504 12.8363 11.5773 12.743 11.2773 12.1823C11.2518 12.1305 11.218 12.0833 11.1773 12.0423L11.4307 11.7343C11.4253 11.7461 11.4158 11.7556 11.404 11.761Z" fill="black"/>
</svg>
