<svg width="19" height="19" viewBox="0 0 19 19" fill="none" xmlns="http://www.w3.org/2000/svg">
<path d="M16.1593 7.65672C16.7266 7.9834 17.1866 8.4681 17.4831 9.05171C17.7797 9.63531 17.9001 10.2926 17.8295 10.9434C17.7589 11.5943 17.5005 12.2105 17.0857 12.717C16.671 13.2235 16.1178 13.5983 15.4936 13.7958C15.2731 14.7969 14.7172 15.6925 13.9181 16.3346C13.119 16.9766 12.1247 17.3265 11.0996 17.3263H9.41302C9.26392 17.3263 9.12093 17.2671 9.0155 17.1617C8.91007 17.0563 8.85084 16.9133 8.85084 16.7642C8.85084 16.6151 8.91007 16.4721 9.0155 16.3666C9.12093 16.2612 9.26392 16.202 9.41302 16.202H11.0996C11.7974 16.2022 12.4781 15.986 13.048 15.5833C13.6178 15.1806 14.0488 14.6111 14.2816 13.9532H13.9105C13.7614 13.9532 13.6184 13.894 13.513 13.7886C13.4076 13.6831 13.3483 13.5401 13.3483 13.391V7.76916C13.3483 7.62005 13.4076 7.47706 13.513 7.37163C13.6184 7.2662 13.7614 7.20697 13.9105 7.20697H14.4727C14.6549 7.20697 14.8336 7.22159 15.009 7.24969C14.8825 6.00264 14.2975 4.84696 13.3675 4.00657C12.4375 3.16618 11.2287 2.70091 9.97521 2.70091C8.72175 2.70091 7.51291 3.16618 6.58291 4.00657C5.65291 4.84696 5.06795 6.00264 4.94139 7.24969C5.11875 7.22127 5.29809 7.20698 5.47771 7.20697H6.0399C6.189 7.20697 6.332 7.2662 6.43743 7.37163C6.54286 7.47706 6.60209 7.62005 6.60209 7.76916V13.391C6.60209 13.5401 6.54286 13.6831 6.43743 13.7886C6.332 13.894 6.189 13.9532 6.0399 13.9532H5.47771C4.73448 13.954 4.01178 13.7094 3.4219 13.2572C2.83202 12.8051 2.40799 12.1708 2.21569 11.4528C2.02339 10.7349 2.07359 9.97358 2.35848 9.28712C2.64337 8.60066 3.14701 8.02751 3.79115 7.65672C3.79115 6.0166 4.44268 4.44366 5.60242 3.28393C6.76216 2.12419 8.3351 1.47266 9.97521 1.47266C11.6153 1.47266 13.1883 2.12419 14.348 3.28393C15.5077 4.44366 16.1593 6.0166 16.1593 7.65672ZM5.47771 8.33134C4.88131 8.33134 4.30933 8.56826 3.88761 8.98999C3.46588 9.41171 3.22896 9.98369 3.22896 10.5801C3.22896 11.1765 3.46588 11.7485 3.88761 12.1702C4.30933 12.5919 4.88131 12.8288 5.47771 12.8288V8.33134ZM16.7215 10.5801C16.7215 9.98369 16.4845 9.41171 16.0628 8.98999C15.6411 8.56826 15.0691 8.33134 14.4727 8.33134V12.8288C15.0691 12.8288 15.6411 12.5919 16.0628 12.1702C16.4845 11.7485 16.7215 11.1765 16.7215 10.5801Z" fill="#1070B9"/>
</svg>
