<svg width="18" height="19" viewBox="0 0 18 19" fill="none" xmlns="http://www.w3.org/2000/svg">
<path d="M4.4873 6.50667V12.5033M13.4823 12.5033V9.505C13.4823 7.38518 13.4823 6.32452 12.8234 5.66639C12.1653 5.0075 11.1046 5.0075 8.9848 5.0075H8.23522M8.23522 5.0075C8.23522 4.48279 9.72989 3.50234 10.1092 3.13354M8.23522 5.0075C8.23522 5.53221 9.72989 6.51267 10.1092 6.88146" stroke="#1070B9" stroke-linecap="round" stroke-linejoin="round"/>
<path d="M4.48745 15.5016C5.31541 15.5016 5.98661 14.8304 5.98661 14.0025C5.98661 13.1745 5.31541 12.5033 4.48745 12.5033C3.65948 12.5033 2.98828 13.1745 2.98828 14.0025C2.98828 14.8304 3.65948 15.5016 4.48745 15.5016Z" stroke="#1070B9" stroke-linecap="round" stroke-linejoin="round"/>
<path d="M4.48745 6.50663C5.31541 6.50663 5.98661 5.83543 5.98661 5.00747C5.98661 4.1795 5.31541 3.5083 4.48745 3.5083C3.65948 3.5083 2.98828 4.1795 2.98828 5.00747C2.98828 5.83543 3.65948 6.50663 4.48745 6.50663Z" stroke="#1070B9" stroke-linecap="round" stroke-linejoin="round"/>
<path d="M13.4826 15.5016C14.3105 15.5016 14.9817 14.8304 14.9817 14.0025C14.9817 13.1745 14.3105 12.5033 13.4826 12.5033C12.6546 12.5033 11.9834 13.1745 11.9834 14.0025C11.9834 14.8304 12.6546 15.5016 13.4826 15.5016Z" stroke="#1070B9" stroke-linecap="round" stroke-linejoin="round"/>
</svg>
