<svg width="19" height="19" viewBox="0 0 19 19" fill="none" xmlns="http://www.w3.org/2000/svg">
<path fill-rule="evenodd" clip-rule="evenodd" d="M10.3973 2.85946H9.55331L9.06983 4.79189L8.58485 4.9418C8.30224 5.02889 8.02844 5.14232 7.76705 5.28062L7.31805 5.51823L5.609 4.4928L5.01233 5.09022L6.03776 6.79927L5.80015 7.24752C5.6616 7.50888 5.54791 7.78269 5.46059 8.06532L5.31142 8.5503L3.37899 9.03378V9.87781L5.31142 10.3613L5.46133 10.8463C5.54779 11.1301 5.66072 11.4027 5.80015 11.6641L6.03776 12.1131L5.01233 13.8221L5.60975 14.4188L7.3188 13.3934L7.76705 13.631C8.02841 13.7699 8.30101 13.8831 8.58485 13.9705L9.06983 14.1197L9.55331 16.0521H10.3973L10.8808 14.1197L11.3658 13.9698C11.6484 13.8827 11.9222 13.7693 12.1836 13.631L12.6326 13.3934L14.3416 14.4188L14.9383 13.8214L13.9129 12.1123L14.1505 11.6641C14.2894 11.4027 14.4026 11.1301 14.4901 10.8463L14.6392 10.3613L16.5717 9.87781V9.03378L14.6392 8.5503L14.4893 8.06532C14.4022 7.78271 14.2888 7.50891 14.1505 7.24752L13.9129 6.79852L14.9383 5.08947L14.3409 4.4928L12.6318 5.51823L12.1836 5.28062C11.9222 5.14206 11.6484 5.02838 11.3658 4.94105L10.8808 4.79189L10.3973 2.85946ZM12.6049 4.48606L13.9789 3.66152C14.1221 3.57558 14.29 3.53998 14.4558 3.56035C14.6216 3.58072 14.7759 3.6559 14.8941 3.77395L15.6572 4.53703C15.7752 4.65524 15.8504 4.8095 15.8708 4.97531C15.8911 5.14113 15.8555 5.309 15.7696 5.45227L14.9451 6.82626C15.11 7.13608 15.2449 7.4609 15.3498 7.80071L16.9037 8.18975C17.0658 8.23035 17.2097 8.32396 17.3125 8.45569C17.4153 8.58743 17.4712 8.74974 17.4712 8.91684V9.99475C17.4712 10.1618 17.4153 10.3242 17.3125 10.4559C17.2097 10.5876 17.0658 10.6812 16.9037 10.7218L15.3498 11.1109C15.2449 11.4507 15.11 11.7755 14.9451 12.0853L15.7696 13.4593C15.8555 13.6026 15.8911 13.7705 15.8708 13.9363C15.8504 14.1021 15.7752 14.2564 15.6572 14.3746L14.8941 15.1376C14.7759 15.2557 14.6216 15.3309 14.4558 15.3512C14.29 15.3716 14.1221 15.336 13.9789 15.2501L12.6049 14.4255C12.295 14.5904 11.9702 14.7254 11.6304 14.8303L11.2414 16.3842C11.2008 16.5463 11.1072 16.6902 10.9754 16.793C10.8437 16.8958 10.6814 16.9516 10.5143 16.9516H9.43638C9.26927 16.9516 9.10696 16.8958 8.97523 16.793C8.84349 16.6902 8.74989 16.5463 8.70928 16.3842L8.32025 14.8303C7.98345 14.7262 7.6572 14.5907 7.34579 14.4255L5.9718 15.2501C5.82853 15.336 5.66066 15.3716 5.49485 15.3512C5.32903 15.3309 5.17477 15.2557 5.05656 15.1376L4.29348 14.3746C4.17543 14.2564 4.10025 14.1021 4.07988 13.9363C4.05951 13.7705 4.09512 13.6026 4.18105 13.4593L5.00559 12.0853C4.84041 11.7739 4.70489 11.4477 4.60081 11.1109L3.04693 10.7218C2.88496 10.6813 2.74117 10.5878 2.63838 10.4562C2.53558 10.3246 2.47966 10.1625 2.47949 9.99549V8.91759C2.4795 8.75049 2.53534 8.58818 2.63815 8.45644C2.74095 8.32471 2.88483 8.2311 3.04693 8.1905L4.60081 7.80146C4.70575 7.46165 4.84068 7.13683 5.00559 6.82701L4.18105 5.45302C4.09512 5.30975 4.05951 5.14188 4.07988 4.97606C4.10025 4.81025 4.17543 4.65599 4.29348 4.53778L5.05656 3.77395C5.17477 3.6559 5.32903 3.58072 5.49485 3.56035C5.66066 3.53998 5.82853 3.57558 5.9718 3.66152L7.34579 4.48606C7.65561 4.32115 7.98043 4.18622 8.32025 4.08128L8.70928 2.5274C8.74985 2.36543 8.84335 2.22164 8.97493 2.11884C9.10651 2.01605 9.26865 1.96013 9.43563 1.95996H10.5135C10.6806 1.95997 10.8429 2.01581 10.9747 2.11861C11.1064 2.22142 11.2 2.3653 11.2406 2.5274L11.6297 4.08128C11.9695 4.18622 12.2943 4.32115 12.6041 4.48606H12.6049ZM9.97533 11.5546C10.532 11.5546 11.0658 11.3335 11.4594 10.9399C11.853 10.5463 12.0742 10.0124 12.0742 9.45579C12.0742 8.89915 11.853 8.3653 11.4594 7.97169C11.0658 7.57809 10.532 7.35696 9.97533 7.35696C9.41868 7.35696 8.88483 7.57809 8.49123 7.97169C8.09762 8.3653 7.87649 8.89915 7.87649 9.45579C7.87649 10.0124 8.09762 10.5463 8.49123 10.9399C8.88483 11.3335 9.41868 11.5546 9.97533 11.5546ZM9.97533 12.4541C9.18012 12.4541 8.41748 12.1382 7.85518 11.5759C7.29289 11.0136 6.97699 10.251 6.97699 9.45579C6.97699 8.66059 7.29289 7.89795 7.85518 7.33565C8.41748 6.77336 9.18012 6.45746 9.97533 6.45746C10.7705 6.45746 11.5332 6.77336 12.0955 7.33565C12.6578 7.89795 12.9737 8.66059 12.9737 9.45579C12.9737 10.251 12.6578 11.0136 12.0955 11.5759C11.5332 12.1382 10.7705 12.4541 9.97533 12.4541Z" fill="#1070B9"/>
</svg>
