<svg width="41" height="41" viewBox="0 0 41 41" fill="none" xmlns="http://www.w3.org/2000/svg">
<path fill-rule="evenodd" clip-rule="evenodd" d="M30.5886 1.73257C30.1815 1.082 29.5816 0.574553 28.8726 0.280873C28.1636 -0.0128081 27.3807 -0.0781125 26.6328 0.0940516L21.3249 1.31335C20.781 1.43838 20.2157 1.43838 19.6718 1.31335L14.3639 0.0940516C13.616 -0.0781125 12.8331 -0.0128081 12.1241 0.280873C11.415 0.574553 10.8152 1.082 10.4081 1.73257L7.51502 6.34995C7.21981 6.82231 6.82128 7.22087 6.34894 7.51905L1.73187 10.4123C1.08246 10.8191 0.57579 11.418 0.282191 12.1258C-0.011407 12.8337 -0.0773721 13.6154 0.0934525 14.3625L1.31267 19.6766C1.43724 20.2196 1.43724 20.7838 1.31267 21.3269L0.0934525 26.6381C-0.0780359 27.3855 -0.0124029 28.1679 0.281227 28.8764C0.574857 29.5848 1.0819 30.1842 1.73187 30.5912L6.34894 33.4844C6.82128 33.7796 7.21981 34.1782 7.51797 34.6506L10.411 39.2679C11.2435 40.5994 12.8317 41.2578 14.3639 40.9065L19.6718 39.6872C20.2157 39.5621 20.781 39.5621 21.3249 39.6872L26.6357 40.9065C27.3832 41.078 28.1655 41.0123 28.8739 40.7187C29.5823 40.425 30.1817 39.918 30.5886 39.2679L33.4817 34.6506C33.7769 34.1782 34.1754 33.7796 34.6477 33.4844L39.2678 30.5912C39.9178 30.1836 40.4246 29.5836 40.7177 28.8745C41.0108 28.1655 41.0757 27.3827 40.9032 26.6351L39.687 21.3269C39.5619 20.7829 39.5619 20.2176 39.687 19.6736L40.9062 14.3625C41.0779 13.6153 41.0128 12.8331 40.7197 12.1247C40.4266 11.4163 39.9201 10.8167 39.2707 10.4093L34.6507 7.5161C34.179 7.22033 33.7804 6.82166 33.4846 6.34995L30.5886 1.73257ZM29.1037 13.9167C29.2863 13.5809 29.3315 13.1874 29.2299 12.8189C29.1283 12.4505 28.8877 12.1358 28.5588 11.9411C28.2299 11.7464 27.8383 11.6869 27.4664 11.7751C27.0946 11.8633 26.7714 12.0923 26.5649 12.4139L18.8452 25.4808L14.1838 21.0169C14.0455 20.8749 13.8801 20.7622 13.6973 20.6855C13.5145 20.6089 13.3181 20.5698 13.1199 20.5707C12.9217 20.5715 12.7257 20.6123 12.5436 20.6906C12.3615 20.7688 12.1971 20.883 12.06 21.0262C11.923 21.1694 11.8162 21.3387 11.746 21.5241C11.6758 21.7094 11.6437 21.9071 11.6515 22.1051C11.6593 22.3032 11.707 22.4976 11.7916 22.6769C11.8762 22.8561 11.996 23.0165 12.1439 23.1485L18.1485 28.9025C18.3092 29.0561 18.5025 29.1715 18.7141 29.24C18.9256 29.3085 19.1499 29.3282 19.3702 29.2979C19.5904 29.2675 19.801 29.1877 19.9861 29.0646C20.1713 28.9414 20.3262 28.778 20.4393 28.5866L29.1037 13.9167Z" fill="#1070B9"/>
</svg>
