<svg xmlns="http://www.w3.org/2000/svg" width="22" height="22" viewBox="0 0 24 24" fill="none">
  <path d="M16.53 13.94c-.28-.14-1.66-.82-1.92-.91-.26-.1-.45-.14-.64.14-.19.28-.74.91-.91 1.1-.17.19-.34.21-.62.07-.28-.14-1.17-.43-2.23-1.39-.82-.73-1.38-1.63-1.54-1.9-.16-.28-.02-.43.12-.57.13-.13.28-.34.42-.51.14-.17.19-.28.28-.47.09-.19.05-.35-.02-.49-.07-.14-.64-1.54-.88-2.12-.23-.56-.47-.49-.64-.5l-.54-.01c-.17 0-.45.06-.69.28-.24.21-.91.89-.91 2.15s.93 2.5 1.06 2.68c.14.19 1.83 2.79 4.44 3.91.62.27 1.1.43 1.48.55.62.2 1.18.17 1.63.1.5-.08 1.66-.68 1.89-1.33.23-.66.23-1.22.16-1.33-.07-.11-.26-.17-.54-.3z" fill="#25D366"></path>
  <path d="M12.04 2C6.58 2 2.16 6.42 2.16 11.88c0 2.09.67 4.03 1.81 5.61L2 22l4.7-1.23c1.54.84 3.31 1.31 5.2 1.31 5.47 0 9.89-4.42 9.89-9.89S17.51 2 12.04 2zm0 17.79c-1.66 0-3.21-.48-4.51-1.31l-.32-.2-2.79.73.74-2.72-.21-.35c-1.05-1.43-1.61-3.13-1.61-4.88 0-4.64 3.77-8.41 8.41-8.41 4.64 0 8.41 3.77 8.41 8.41s-3.77 8.41-8.41 8.41z" fill="#25D366"></path>
</svg>
